<?xml version="1.0" encoding="utf-8"?>
<!-- Generator: Adobe Illustrator 27.5.0, SVG Export Plug-In . SVG Version: 6.00 Build 0)  -->
<svg version="1.1" id="Layer_1" xmlns="http://www.w3.org/2000/svg" xmlns:xlink="http://www.w3.org/1999/xlink" x="0px" y="0px"
	 viewBox="0 0 316.494 226.192" style="enable-background:new 0 0 316.494 226.192;" xml:space="preserve">
<g>
	<g>
		<g>
			<g>
				<path style="fill:#5C2F10;" d="M114.174,100.783c-4.454-7.92-11.029-14.763-18.193-20.29
					c-6.03-4.65-13.466-11.695-21.139-13.364c-2.101-0.455-4.294-0.442-5.319,1.572c-2.639-0.058-4.211,1.87-5.441,4.919
					c-1.669,4.131-0.705,10.241-0.592,14.58c0.192,7.41-0.266,14.808-0.288,22.215c-0.032,11.778-0.215,23.544-0.311,35.322
					c-0.087,10.395-1.768,22.02-0.413,32.392c-0.09,0.112-0.16,0.224-0.215,0.339c-1.172,0.993-2.162,2.28-3.273,3.298
					c-1.771,1.624-3.606,3.122-5.169,4.958c-1.7,2.001-2.238,4.74,1.14,4.512c1.697-0.115,3.545-1.681,4.871-2.591
					c1.829-1.255,3.603-2.604,5.297-4.029c2.226-1.87,4.077-4.374,3.929-7.215c3.884-8.182,3.366-29.433,3.513-32.111
					c0.756-13.693,2.258-27.323,3.263-41c0.525-7.18,2.174-16.326,0.682-24.098c2.735,2.997,5.944,5.976,6.943,7.077
					c7.164,7.91,14.834,15.304,22.298,22.923C115.032,119.667,119.407,110.089,114.174,100.783z"/>
				<path style="fill:#FFFFFF;" d="M63.794,182.985c-2.027,1.502-4.121,2.889-6.235,4.266c-0.038,0.029-2.299,1.723-1.451,0.608
					c1.025-1.351,2.315-2.527,3.532-3.696c1.057-1.012,2.264-2.809,3.519-3.939c0.163,0.022,0.349,0.01,0.551-0.054
					c1.22,0.608,2.27,0.557,3.174,0.003C66.192,181.323,64.694,182.322,63.794,182.985z"/>
				<path style="fill:#FFFFFF;" d="M70.951,127.548c-0.781,8.384-1.326,16.777-1.819,25.18c-0.154,2.597-0.397,23.669-3.817,24.559
					c-0.974-16.716,0.381-34.134,0.871-50.864c0.259-8.855-0.205-17.754,0.061-26.631c0.096-3.119-1.758-25.677,2.905-28.709
					c0.372,2.2,2.354,4.608,4.56,6.635C76.072,93.692,72.411,111.85,70.951,127.548z"/>
			</g>
			<path style="fill:#FFFFFF;" d="M111.894,111.684c-5.028-1.841-10.59-9.405-14.366-13.136c-4.198-4.147-8.288-8.406-12.387-12.653
				c-0.634-0.653-2.668-2.427-4.909-4.458c0.042-0.112,0.039-0.227-0.038-0.323c-1.953-2.456-4.118-4.801-5.956-7.359
				c-0.163-0.291-0.311-0.592-0.493-0.878c-0.045-0.07-0.112-0.093-0.183-0.096c-0.573-0.861-1.108-1.745-1.572-2.674
				c0.131-0.189,0.202-0.391,0.166-0.58c1.803,0.304,9.306,4.163,9.415,4.233c10.43,6.818,19.663,15.538,27.076,25.53
				C109.069,99.86,115.426,112.974,111.894,111.684z"/>
		</g>
		<g>
			<path style="fill:#5C2F10;" d="M293.531,155.585c-2.146-5.05-5.233-9.838-7.705-14.677c-3.324-6.498-6.62-13.005-10.069-19.435
				c-7.378-13.757-14.353-27.65-21.334-41.602c-6.357-12.704-13.332-25.097-20.543-37.334c-2.408-4.089-4.65-8.096-7.596-11.769
				c-0.019-0.237-0.061-0.455-0.106-0.669c-1.258-1.387-2.77-2.498-4.544-2.85c-0.881-0.038-1.771,0.032-2.668,0.317
				c-1.348,0.426-2.37,1.172-3.327,2.024c-0.003,0.106,0.003,0.208,0.022,0.301c-0.198,0.307-0.375,0.628-0.506,0.967
				c-16.873,20.665-31.46,42.906-47.693,64.067c-4.41,5.748-14.315,16.88-12.755,25.139c1.182,6.235,5.716,4.343,9.636,1.137
				c8.227-6.728,13.181-16.556,19.07-25.19c8.278-12.143,17.213-23.784,26.391-35.258c1.633-2.04,6.072-7.769,9.934-13.943
				c0.157,0.295,0.304,0.576,0.432,0.829c8.169,16.185,17.162,32.072,26.468,47.661c8.714,14.6,18.077,28.818,26.9,43.357
				c3.715,6.126,7.564,11.762,11.737,17.575c1.518,2.12,3.18,5.342,5.511,6.053c0.019,0.189,0.077,0.359,0.208,0.464
				c3.263,2.652,8.947,2.216,12.931,2.604c2.056,0.202,7.202,1.22,7.753-2.011C312.854,156.475,298.549,155.694,293.531,155.585z"/>
			<path style="fill:#FFFFFF;" d="M214.009,51.67c-5.332,7.206-11.09,14.087-16.435,21.29
				c-10.847,14.616-19.717,32.786-33.126,45.122c-4.586,4.215-8,0.871-5.505-4.794c2.155-4.896,5.854-9.325,9.034-13.578
				c5.556-7.43,10.952-14.907,16.246-22.529c10.084-14.52,20.396-28.876,30.525-43.364c0.17,3.596,2.245,7.843,3.923,10.997
				C216.958,47.635,215.11,50.181,214.009,51.67z"/>
			<path style="fill:#FFFFFF;" d="M291.42,159.915c-2.248-1.089-14.068-21.334-17.104-26.343
				c-6.395-10.562-12.925-21.085-19.704-31.403c-2.552-3.885-18.426-29.398-28.569-48.942c-3.775-5.684-14.107-21.431-8.019-24.249
				c3.382-1.563,5.799,0.852,7.522,3.731c2.581,4.317,4.57,8.941,6.796,13.44c0.775,1.352,1.55,2.703,2.335,4.054
				c7.138,12.32,13.828,24.895,20.089,37.686c6.421,13.117,36.904,66.85,38.237,70.776
				C293.329,159.623,292.221,160.302,291.42,159.915z"/>
			<path style="fill:#FFFFFF;" d="M305.892,162.515c-1.691-0.067-3.382-0.327-5.063-0.516c-2.168-0.243-4.259-0.679-6.37-1.07
				c0.336-0.48,0.57-1.265,0.471-1.582c-0.131-0.429-0.291-0.855-0.442-1.281c4.791,1.861,10.664,1.005,14.676,4.762
				C308.656,162.355,306.507,162.541,305.892,162.515z"/>
		</g>
		<g>
			<path style="fill:#5C2F10;" d="M92.151,167.52c0,0.032,0.003,0.061,0.006,0.09c-2.831,3.715-3.981,9.953-4.72,14.388
				c-0.343,2.072-0.112,4.663,1.947,5.8c2.693,1.492,6.078-5.182,6.936-6.68c1.796-3.142,3.093-6.261,3.337-9.71
				c0.096-0.135,0.192-0.243,0.291-0.391c3.878-5.691,3.558-12.829,5.041-19.374c1.912-8.432,3.029-17.024,4.445-25.549
				c2.968-17.869,5.873-35.748,8.749-53.634c0.051-0.327,0.134-0.778,0.237-1.319c1.246,3.03,2.562,6.04,3.875,9.066
				c3.958,9.146,9.851,17.354,15.022,25.818c2.379,3.888,5.556,11.708,10.786,12.46c0.327,0.048,0.669,0.035,0.874-0.279
				c2.097-3.17,0.634-7.651-0.292-11.045c-0.025-0.099-0.138-0.25-0.262-0.375c-2.053-14.436-8.041-29.315-13.985-41.83
				c-1.71-3.596-14.853-32.552-21.482-25.735c-0.086,0.09-0.15,0.202-0.227,0.301c-8.4,4.957-12.79,48.222-13.588,53.275
				c-3.808,24.197-8.041,49.653-7.135,74.203C92.013,167.155,92.074,167.338,92.151,167.52z"/>
			<path style="fill:#FFFFFF;" d="M120.851,47.562c2.715,3.315,5.521,7.897,6.126,9.018c3.465,6.395,6.648,12.947,9.287,19.733
				c2.405,6.19,4.666,12.467,6.523,18.849c1.23,4.23,2.402,8.503,3.257,12.826c0.384,1.819,0.724,3.644,1.021,5.482
				c0.003,0.003,0.007,0.01,0.01,0.013c-0.817,1.191-2.351,0.506-5.162-4.301c-1.377-2.354-2.77-4.708-4.221-7.02
				c-3.641-5.813-7.394-11.522-10.485-17.655c-2.661-5.287-5.671-11.276-8.022-17.475C120.191,61.46,121.456,53.233,120.851,47.562z
				"/>
			<path style="fill:#FFFFFF;" d="M90.053,183.468c0.112-0.66,0.23-1.322,0.355-1.982c0.327-1.425,0.669-2.844,1.124-4.234
				c0.564-1.71,1.275-3.382,1.803-5.095c0.817,1.467,2.014,2.309,3.487,1.771c-1.72,3.763-3.881,7.497-6.68,10.123
				C89.82,184.91,89.788,184.717,90.053,183.468z"/>
			<path style="fill:#FFFFFF;" d="M100.865,103.13c1.675-11.644,2.946-23.711,5.38-35.22c0.49-2.312,1.531-10.068,3.347-16.704
				c0.279-3.295,0.98-7.436,3.395-9.178c2.037-1.467,4.896-0.65,5.636,1.873c0.804,2.747,0.704,5.569,0.391,8.381
				c0.022,7.506-2.05,15.637-3.353,22.539c-1.55,8.185-2.927,16.758-5.293,24.831c-0.759,5.037-1.502,10.075-2.306,15.119
				c-1.688,10.59-2.764,21.466-5.031,31.947c-0.996,4.599-1.825,9.172-2.466,13.831c-0.131,2.892-1.066,5.489-2.805,7.795
				c-1.207-0.026-2.421-0.055-3.628-0.08c0.006-0.032,0.019-0.045,0.023-0.077C96.935,146.554,97.749,124.772,100.865,103.13z"/>
		</g>
		<path style="fill:#5C2F10;" d="M300.044,131.955c-5.94-19.038-14.808-34.794-31.114-46.678
			c-14.962-10.904-33.206-15.906-51.437-11.535c-15.538,3.728-33.094,10.917-42.089,24.873c-2.335-1.88-5.22-3.17-7.977-4.102
			c-0.964-0.327-3.084-0.378-4.131-0.442c-0.522-0.029-1.921,0.416-3.129,0.759c-6.184-14.824-27.092-22.759-43.927-16.64
			c-0.839-4.458-2.523-8.826-5.137-12.874c-12.611-19.535-40.13-12.979-56.321-3.177c-9.479,5.739-17.616,13.511-23.941,22.577
			c-2.786,3.997-4.72,8.233-6.174,12.835c-0.359,0.676-0.631,1.204-0.724,1.422c-1.079,2.556-1.374,5.511-1.659,8.224
			c-0.423,3.99,0.304,7.926,1.713,11.618c-2.181,0.657-3.731,3.331-4.58,5.409c-2.399,5.896-3.267,11.016-2.921,17.36
			c0.183,3.379,3.209,4.455,5.162,1.665c1.156-1.649,2.017-3.366,2.84-5.201c1.691-3.776,3.728-6.418,6.651-9.079
			c0.256,0.17,0.506,0.355,0.772,0.509c-0.237,0.413-0.48,0.82-0.717,1.236c-2.117,3.715-5.681,8.259-6.27,12.598
			c-1.018,7.5,14.753-1.153,16.662-2.527c2.453-1.765,6.591-5.319,9.239-9.223c0.964-0.144,1.918-0.298,2.844-0.474
			c6.847,0.365,13.725,0.157,20.057-1.3c7.583-1.745,14.238-4.993,20.537-9.098c10.581,11.343,26.071,11.983,40.504,10.139
			c6.046-0.772,12.617-3.023,17.68-6.927c2.767,3.407,7.033,4.157,11.442,3.327c11.699,31.957,37.933,35.396,57.259,42.179
			c27.249,9.556,56.513,12.441,84.697,6.075c0.003,0.01,0.003,0.022,0.007,0.035c0.893-0.368,1.774-0.765,2.623-1.227
			c0.381-0.205,0.644-0.628,0.817-1.188C308.14,159.105,304.195,145.258,300.044,131.955z"/>
		<path style="fill:#FFFFFF;" d="M22.873,136.912c-0.061,0.135-3.161,6.539-3.936,3.18c-0.394-1.707-0.221-4.16-0.138-5.816
			c0.189-3.596,1.928-11.948,5.915-13.716c0.573,1.271,1.217,2.511,1.925,3.702c0.897,1.502,1.989,2.719,3.209,3.734
			C26.671,130.2,24.503,133.325,22.873,136.912z"/>
		<path style="fill:#FFFFFF;" d="M50.142,129.361c-1.598,2.869-3.776,5.832-6.533,7.487c-2.559,2.347-5.018,4.038-8.269,5.396
			c-1.092,0.458-10.786,5.143-8.403,0.07c1.095-2.335,4.419-7.241,5.694-9.482c0.17-0.298,0.349-0.586,0.525-0.877
			c1.111-2.52,2.286-5.095,3.84-7.375c1.422-2.091,3.635-4.672,6.062-5.591c1.515-0.573,3.926-0.323,5.316,0.528
			C51.874,121.656,52.019,125.989,50.142,129.361z"/>
		<path style="fill:#FFFFFF;" d="M52.893,127.523c0.57-1.79,0.625-3.555-0.134-5.162c-0.948-2.011-2.674-4.192-4.871-4.848
			c-5.166-1.55-9.534,2.543-12.4,6.328c-0.07,0.096-2.444,4.099-2.331,4.179c-1.534-1.083-3.641-3.779-5.021-5.588
			c-4.807-6.293-3.881-13.29-2.491-20.342c1.608-5.857,4.89-12.451,8.762-17.876c5.454-7.638,12.973-13.726,20.787-18.785
			c16.073-10.405,42.368-14.635,54.502,3.942c4.256,6.514,4.852,15.003,4.128,22.513c-1.159,12.083-9.582,19.483-18.917,25.949
			C81.25,127.289,67.649,127.99,52.893,127.523z"/>
		<path style="fill:#FFFFFF;" d="M127.483,127.91c-11.516,0.759-21.536-2.507-31.019-8.688c1.867-1.291,3.708-2.636,5.537-4.054
			c10.68-8.297,16.073-21.53,14.606-34.381c18.574-3.468,45.022,4.5,42.118,28.021C156.795,124.435,140.046,127.084,127.483,127.91z
			"/>
		<path style="fill:#FFFFFF;" d="M154.543,122.107c1.979-1.896,3.635-4.093,4.775-6.635c3.142-6.991,3.308-13.444,1.447-19.019
			c8.919,0.359,18.443,6.587,18.148,16.345c-0.199,6.68-7.881,9.867-13.335,10.959C161.4,124.592,158.236,123.372,154.543,122.107z"
			/>
		<path style="fill:#FFFFFF;" d="M229.195,167.489c-23.278-6.777-55.101-11.99-63.251-40.747c6.29-1.838,12.448-6.546,14.574-11.077
			c2.507-5.338,0.474-10.866-3.087-15.09c-0.211-0.253-0.445-0.484-0.676-0.717c0.243-0.304,0.375-0.653,0.298-0.935
			c-0.01-0.051-0.032-0.093-0.051-0.138c-0.01-0.013-0.006-0.032-0.019-0.048c-1.838-2.338,18.609-13.655,20.915-14.725
			c8.64-4.009,17.796-6.693,27.265-7.734c17.639-1.937,33.955,6.68,47.171,17.536c22.82,18.75,29.417,49.708,33.116,78.423
			C279.562,177.211,254.574,174.876,229.195,167.489z"/>
		<path style="fill:#5C2F10;" d="M177.59,145.826c2.139-2.591,4.225-5.226,6.232-7.92c3.603-4.835,6.986-9.839,10.044-15.037
			c3.096-5.263,5.872-10.731,8.099-16.42c2.133-5.448,3.776-11.113,4.593-16.914c0.428-3.037,0.606-6.112,0.511-9.177
			c-1.307,0.446-2.609,0.911-3.897,1.416c-0.319,2.447-0.742,4.881-1.26,7.291c-1.217,5.658-2.941,11.205-5.058,16.59
			c-2.166,5.509-4.741,10.859-7.702,15.986c-2.898,5.018-6.17,9.825-9.832,14.318c-1.702,2.088-3.493,4.108-5.377,6.036
			C175.083,143.355,176.305,144.626,177.59,145.826z"/>
		<path style="fill:#5C2F10;" d="M241.141,156.191c2.722-6.364,5.064-12.891,7.012-19.533c1.933-6.591,3.476-13.296,4.614-20.07
			c1.15-6.841,1.882-13.751,2.2-20.68c0.206-4.508,0.217-9.023,0.073-13.533c-1.945-0.973-3.925-1.863-5.942-2.643
			c1.109,4.252,1.65,8.656,1.77,13.048c0.208,7.665-0.81,15.339-2.451,22.814c-1.737,7.914-4.2,15.661-7.084,23.228
			c-2.79,7.318-5.982,14.481-9.467,21.493c-1.155,2.323-2.352,4.625-3.571,6.916c0.299,0.086,0.605,0.171,0.901,0.257
			c1.934,0.563,3.865,1.086,5.794,1.589C237.205,164.863,239.268,160.568,241.141,156.191z"/>
		<path style="fill:#5C2F10;" d="M272.412,168.768c2.647-6.292,4.777-12.799,6.459-19.413c1.708-6.72,2.957-13.556,3.792-20.438
			c0.827-6.811,1.257-13.669,1.322-20.529c0.007-0.745-0.006-1.49-0.008-2.235c-1.32-1.787-2.717-3.521-4.208-5.188
			c0.019,0.385,0.045,0.769,0.059,1.154c0.28,7.526-0.302,15.07-1.518,22.497c-1.247,7.62-3.169,15.124-5.601,22.449
			c-2.405,7.241-5.309,14.315-8.626,21.185c-0.926,1.919-1.895,3.817-2.886,5.703c2.847,0.308,5.695,0.537,8.548,0.689
			C270.686,172.708,271.578,170.751,272.412,168.768z"/>
		<path style="fill:#5C2F10;" d="M210.887,149.318c3.424-6.442,6.516-13.064,9.174-19.859c2.66-6.797,4.893-13.771,6.524-20.888
			c1.595-6.956,2.611-14.057,2.792-21.197c0.096-3.789-0.058-7.584-0.478-11.347c-1.239,0.034-2.484,0.113-3.737,0.25
			c-0.227,0.025-0.452,0.057-0.678,0.084c0.487,4.965,0.477,9.981,0.111,14.953c-0.538,7.323-1.831,14.587-3.667,21.693
			c-1.889,7.315-4.363,14.477-7.344,21.418c-2.905,6.763-6.303,13.327-10.255,19.539c-1.043,1.64-2.132,3.255-3.258,4.843
			c1.482,0.554,2.981,1.072,4.485,1.575C206.772,156.755,208.893,153.071,210.887,149.318z"/>
		<path style="fill:#5C2F10;" d="M88.27,70.046c-0.186-0.144-0.41-0.112-0.624,0c-5.793-2.11-14.03,5.063-18.497,9.95
			c-4.948,5.412-14.942,21.639-6.667,28.453c8.839,7.276,21.901-2.619,27.06-10.03C95.981,89.171,97.787,77.37,88.27,70.046z"/>
		<path style="fill:#FFFFFF;" d="M67.361,108.462C56.8,107.066,63.64,90.89,66.308,86.314c3.705-6.357,14.753-17.725,22.141-13.364
			c1.521,1.576,2.934,3.084,4.138,5.121c2.258,3.824-0.199,10.34-1.464,14.014C87.812,101.702,77.916,109.858,67.361,108.462z"/>
		<g>
			<g>
				<g>
					<path style="fill:#5C2F10;" d="M139.178,122.04c-5.966-6.85-13.793-12.22-21.93-16.178c-6.847-3.331-15.554-8.723-23.406-8.8
						c-2.152-0.019-4.294,0.439-4.893,2.62c-2.594,0.477-3.744,2.687-4.33,5.918c-0.794,4.384,1.387,10.171,2.376,14.398
						c1.691,7.218,2.745,14.555,4.224,21.815c2.354,11.538,4.563,23.099,6.856,34.65c2.024,10.197,2.732,21.921,6.161,31.803
						c-0.064,0.128-0.109,0.253-0.141,0.375c-0.945,1.211-1.652,2.671-2.536,3.894c-1.403,1.95-2.895,3.789-4.054,5.905
						c-1.258,2.303-1.23,5.092,2.03,4.186c1.64-0.458,3.132-2.367,4.246-3.526c1.534-1.598,2.997-3.279,4.371-5.018
						c1.8-2.283,3.103-5.108,2.383-7.862c2.146-8.8-2.674-29.504-3.071-32.155c-2.037-13.562-3.33-27.214-5.118-40.808
						c-0.941-7.138-1.182-16.431-4.218-23.736c3.286,2.379,7.033,4.643,8.233,5.521c8.618,6.293,17.629,11.98,26.481,17.927
						C143.847,140.358,146.188,130.094,139.178,122.04z"/>
					<path style="fill:#FFFFFF;" d="M106.514,212.751c-1.681,1.883-3.452,3.664-5.242,5.444c-0.032,0.032-1.902,2.149-1.297,0.887
						c0.73-1.531,1.755-2.943,2.709-4.333c0.829-1.208,1.649-3.209,2.648-4.573c0.167-0.009,0.343-0.061,0.528-0.167
						c1.319,0.349,2.335,0.087,3.106-0.637C108.525,210.638,107.257,211.919,106.514,212.751z"/>
					<path style="fill:#FFFFFF;" d="M102.28,157.017c0.935,8.368,2.104,16.694,3.324,25.024c0.378,2.575,4.413,23.259,1.243,24.825
						c-4.342-16.172-6.549-33.504-9.46-49.983c-1.54-8.727-3.801-17.347-5.338-26.093c-0.541-3.074-6.93-24.783-2.978-28.7
						c0.807,2.078,3.238,4.035,5.809,5.572C100.429,122.825,100.528,141.347,102.28,157.017z"/>
				</g>
				<path style="fill:#FFFFFF;" d="M139.156,133.178c-5.297-0.781-12.278-7.061-16.729-9.95c-4.954-3.209-9.822-6.552-14.696-9.879
					c-0.753-0.512-3.106-1.835-5.713-3.369c0.019-0.118-0.006-0.23-0.102-0.307c-2.408-2.011-5.005-3.865-7.324-6.001
					c-0.218-0.253-0.426-0.516-0.66-0.756c-0.061-0.061-0.128-0.07-0.199-0.061c-0.737-0.724-1.441-1.483-2.085-2.296
					c0.093-0.211,0.122-0.426,0.048-0.602c1.825-0.07,9.956,2.187,10.078,2.235c11.593,4.56,22.404,11.228,31.691,19.509
					C133.994,122.174,142.877,133.726,139.156,133.178z"/>
			</g>
			<g>
				<path style="fill:#5C2F10;" d="M283.997,195.753c-0.692-5.444-2.357-10.891-3.423-16.22c-1.428-7.158-2.831-14.315-4.4-21.443
					c-3.356-15.243-6.286-30.509-9.21-45.836c-2.661-13.956-5.998-27.778-9.61-41.516c-1.204-4.589-2.274-9.056-4.109-13.392
					c0.048-0.231,0.067-0.452,0.08-0.669c-0.833-1.678-1.986-3.161-3.596-3.981c-0.836-0.279-1.713-0.452-2.655-0.423
					c-1.409,0.045-2.597,0.484-3.75,1.044c-0.032,0.103-0.054,0.202-0.061,0.298c-0.275,0.24-0.532,0.5-0.749,0.791
					c-21.86,15.295-41.948,32.728-63.324,48.673c-5.809,4.333-18.369,12.352-19.115,20.723c-0.56,6.322,4.317,5.732,8.964,3.715
					c9.745-4.237,17.187-12.345,25.203-19.051c11.272-9.431,23.038-18.206,34.99-26.746c2.126-1.521,7.955-5.828,13.354-10.715
					c0.07,0.327,0.134,0.637,0.189,0.913c3.459,17.799,7.788,35.534,12.502,53.064c4.413,16.422,9.553,32.651,14.087,49.045
					c1.912,6.904,4.08,13.376,6.514,20.105c0.884,2.45,1.608,6.004,3.657,7.321c-0.032,0.189-0.022,0.368,0.074,0.506
					c2.421,3.439,8.009,4.567,11.733,6.024c1.925,0.753,6.6,3.132,8.009,0.173C302.35,201.866,288.794,197.22,283.997,195.753z"/>
				<path style="fill:#FFFFFF;" d="M235.747,74.119c-7.093,5.486-14.504,10.542-21.607,16.019
					c-14.414,11.112-27.893,26.183-44.155,34.403c-5.556,2.812-7.932-1.336-3.99-6.11c3.407-4.125,8.169-7.378,12.387-10.606
					c7.369-5.636,14.593-11.365,21.764-17.258c13.655-11.228,27.483-22.237,41.17-33.424c-0.814,3.507,0.029,8.156,0.785,11.65
					C239.682,71.042,237.213,72.989,235.747,74.119z"/>
				<path style="fill:#FFFFFF;" d="M280.788,199.343c-1.87-1.659-7.734-24.354-9.29-30.003c-3.283-11.9-6.703-23.803-10.421-35.579
					c-1.399-4.432-9.732-33.302-14.174-54.866c-2.088-6.498-7.743-24.46-1.118-25.517c3.68-0.586,5.348,2.399,6.222,5.636
					c1.31,4.858,1.966,9.847,2.882,14.782c0.378,1.512,0.759,3.023,1.143,4.538c3.52,13.799,6.533,27.717,9.079,41.727
					c2.61,14.372,17.325,74.369,17.536,78.51C282.703,199.583,281.454,199.935,280.788,199.343z"/>
				<path style="fill:#FFFFFF;" d="M294.005,205.783c-1.608-0.525-3.164-1.233-4.73-1.874c-2.021-0.826-3.917-1.812-5.838-2.764
					c0.452-0.368,0.89-1.06,0.884-1.393c-0.01-0.448-0.051-0.9-0.077-1.351c4.102,3.093,9.988,3.868,12.826,8.576
					C296.711,206.382,294.591,205.975,294.005,205.783z"/>
			</g>
			<g>
				<path style="fill:#5C2F10;" d="M193.148,190.062c4.826-24.085,4.727-49.89,4.845-74.385c0.022-5.117,2.616-48.526-4.881-54.764
					c-0.058-0.112-0.106-0.231-0.176-0.333c-5.45-7.791-23.06,18.686-25.325,21.962c-7.875,11.4-16.166,25.129-20.505,39.05
					c-0.144,0.103-0.279,0.234-0.32,0.327c-1.457,3.202-3.619,7.388-2.059,10.856c0.154,0.343,0.49,0.41,0.82,0.416
					c5.281,0.093,9.671-7.119,12.643-10.574c6.459-7.526,13.591-14.686,18.965-23.077c1.781-2.78,3.561-5.537,5.278-8.329
					c0.013,0.551,0.022,1.012,0.022,1.339c-0.025,18.116-0.022,36.229,0.045,54.345c0.029,8.64-0.24,17.303,0.295,25.93
					c0.416,6.699-1.044,13.697,1.87,19.935c0.077,0.16,0.15,0.282,0.227,0.432c-0.314,3.443,0.467,6.728,1.739,10.117
					c0.605,1.617,2.876,8.746,5.777,7.705c2.213-0.794,2.857-3.315,2.847-5.412c-0.019-4.499-0.154-10.84-2.35-14.958
					c0.006-0.029,0.013-0.058,0.019-0.086C193.03,190.386,193.116,190.216,193.148,190.062z"/>
				<path style="fill:#FFFFFF;" d="M182.334,87.031c-3.311,5.745-7.244,11.173-10.718,15.964
					c-4.032,5.562-8.65,10.597-13.178,15.749c-1.8,2.049-3.551,4.15-5.287,6.254c-3.545,4.291-5.172,4.724-5.787,3.417
					c0.006-0.003,0.009-0.006,0.013-0.013c0.586-1.764,1.214-3.513,1.886-5.249c1.537-4.128,3.378-8.16,5.268-12.134
					c2.857-6.005,6.094-11.836,9.46-17.562c3.689-6.277,7.884-12.233,12.326-17.991c0.778-1.009,4.282-5.085,7.494-7.92
					C182.305,73.046,182.231,81.373,182.334,87.031z"/>
				<path style="fill:#FFFFFF;" d="M192.258,207.192c-2.341-3.042-3.878-7.071-4.973-11.061c1.371,0.769,2.687,0.125,3.728-1.191
					c0.247,1.777,0.682,3.542,0.961,5.319c0.227,1.448,0.339,2.901,0.432,4.358c0.019,0.673,0.029,1.345,0.035,2.014
					C192.501,207.906,192.441,208.092,192.258,207.192z"/>
				<path style="fill:#FFFFFF;" d="M190.843,190.888c-0.003,0.035,0.009,0.048,0.009,0.08c-1.197-0.167-2.399-0.333-3.596-0.503
					c-1.348-2.552-1.854-5.268-1.518-8.141c0.115-4.701,0.026-9.351-0.221-14.049c-0.557-10.709,0.122-21.616,0.154-32.338
					c0.013-5.108,0.086-10.203,0.144-15.295c-1.044-8.349-1.031-17.03-1.246-25.36c-0.183-7.02-0.926-15.378,0.301-22.785
					c0.141-2.825,0.493-5.623,1.726-8.208c1.134-2.373,4.089-2.722,5.864-0.948c2.104,2.107,2.133,6.309,1.88,9.604
					c0.73,6.84,0.516,14.664,0.628,17.024c0.56,11.75-0.119,23.864-0.33,35.627C194.244,147.458,191.56,169.093,190.843,190.888z"/>
			</g>
		</g>
	</g>
	<path style="fill:#5C2F10;" d="M42.6,39.719c-4.82-5.252-10.648-9.281-16.793-12.8c-6.61-3.782-13.149-4.896-20.29-7.157
		c-0.442-0.138-1.095,0.807-0.58,1.025c12.367,5.258,23.919,10.305,33.583,20.025c8.826,8.871,14.254,19.029,19.631,30.035
		c0.368,0.759,1.345-0.512,1.316-0.98C58.833,58.658,49.918,47.696,42.6,39.719z"/>
	<path style="fill:#5C2F10;" d="M35.369,3.442c-0.397-0.256-1.057,0.551-0.711,0.874c10.424,9.793,17.146,19.756,23.301,32.632
		c2.661,5.569,4.003,11.74,5.172,17.793c0.922,4.771,0.711,9.876,2.098,14.491c0.228,0.765,1.339-0.455,1.374-0.842
		C68.953,43.053,56.435,17.101,35.369,3.442z"/>
</g>
</svg>
