<?xml version="1.0" encoding="UTF-8"?>
<svg xmlns="http://www.w3.org/2000/svg" xmlns:xlink="http://www.w3.org/1999/xlink" width="2251" height="2251" viewBox="0 0 2251 2251">
<path fill-rule="nonzero" fill="rgb(0%, 0%, 0%)" fill-opacity="1" d="M 1093.320312 2.621094 C 1062.691406 7.558594 1047.648438 11.109375 1027.921875 18.210938 C 994.464844 30.238281 959.507812 52.140625 951.238281 65.949219 C 944.660156 77.191406 948.042969 99.488281 957.816406 107.96875 C 959.507812 109.550781 960.824219 111.71875 960.824219 112.910156 C 960.824219 114.089844 965.144531 120.011719 970.40625 125.730469 C 975.667969 131.449219 979.429688 136.578125 979.050781 136.980469 C 977.925781 138.160156 955.746094 125.929688 944.847656 118.03125 C 940.335938 114.878906 935.828125 112.121094 935.074219 112.121094 C 933.382812 112.121094 927.746094 105.808594 924.175781 99.890625 C 919.289062 91.601562 887.902344 47.410156 882.828125 41.679688 L 877.1875 35.371094 L 817.988281 33.988281 C 749.578125 32.410156 692.632812 35.960938 646.960938 44.441406 C 638.128906 46.21875 627.792969 48 623.84375 48.390625 C 620.085938 48.980469 616.328125 50.171875 615.765625 51.160156 C 615.199219 52.140625 612.945312 52.929688 610.691406 52.929688 C 605.425781 52.929688 577.425781 63.191406 578.363281 64.769531 C 578.738281 65.359375 585.316406 68.121094 592.835938 70.488281 C 600.351562 73.058594 608.246094 75.820312 610.3125 76.609375 C 612.382812 77.589844 617.078125 78.769531 620.648438 79.558594 C 624.222656 80.351562 630.609375 81.730469 634.746094 82.71875 C 685.300781 94.359375 718.003906 97.910156 790.925781 99.488281 L 843.734375 100.679688 L 846.742188 106 C 848.246094 108.761719 851.816406 113.691406 854.449219 117.050781 C 857.078125 120.210938 859.335938 123.558594 859.335938 124.148438 C 859.335938 124.738281 861.027344 127.308594 863.09375 129.871094 C 868.542969 136.578125 867.792969 139.539062 857.457031 150.980469 C 852.191406 156.699219 848.058594 162.03125 848.058594 162.820312 C 848.058594 163.808594 844.300781 168.738281 839.601562 174.070312 C 834.902344 179.191406 831.144531 184.121094 831.144531 184.910156 C 831.144531 185.511719 828.886719 188.859375 825.882812 192.019531 C 823.0625 195.371094 820.054688 199.519531 818.925781 201.289062 C 817.988281 203.070312 813.101562 210.371094 808.214844 217.660156 C 803.140625 224.769531 799.195312 231.480469 799.195312 232.460938 C 799.195312 233.640625 798.441406 234.429688 797.503906 234.429688 C 796.5625 234.429688 794.496094 237.390625 792.804688 241.140625 C 791.300781 244.691406 788.667969 248.839844 786.976562 250.21875 C 785.472656 251.601562 784.160156 253.371094 784.160156 254.359375 C 784.160156 255.351562 780.398438 262.058594 776.078125 269.359375 C 771.566406 276.648438 765.175781 288.101562 761.792969 294.609375 C 758.410156 300.921875 754.089844 308.609375 752.019531 311.570312 C 750.140625 314.53125 748.449219 317.488281 748.449219 318.28125 C 748.449219 319.070312 745.628906 324.199219 742.058594 329.71875 C 738.488281 335.441406 733.976562 343.339844 731.722656 347.28125 C 721.949219 365.628906 719.695312 369.96875 716.5 374.511719 C 713.492188 379.050781 710.863281 383.980469 694.511719 415.941406 C 689.8125 425.019531 678.910156 452.238281 674.214844 466.25 C 671.394531 474.730469 668.011719 490.710938 665.566406 506.300781 C 662.9375 524.441406 664.816406 538.261719 671.582031 548.519531 C 677.410156 557 676.28125 557.980469 661.621094 557.980469 C 646.773438 558.179688 642.640625 560.160156 637.753906 570.21875 C 636.25 573.371094 634.558594 575.738281 633.804688 575.738281 C 633.054688 575.738281 631.550781 571.988281 630.234375 567.261719 C 624.035156 545.949219 618.582031 535.101562 607.496094 522.871094 C 601.292969 516.160156 596.21875 510.039062 596.21875 509.449219 C 596.21875 508.859375 586.070312 496.230469 573.664062 481.039062 C 561.261719 466.050781 551.113281 453.230469 551.113281 452.628906 C 551.113281 452.039062 547.542969 447.699219 543.40625 443.160156 C 539.085938 438.429688 533.445312 431.519531 530.628906 427.78125 C 527.996094 424.03125 524.050781 419.089844 521.980469 416.730469 C 516.15625 410.21875 509.203125 401.730469 503.5625 393.640625 C 500.554688 389.5 494.917969 382.601562 490.785156 378.261719 C 486.835938 373.921875 483.453125 369.96875 483.453125 369.378906 C 483.453125 368.789062 476.125 359.320312 466.914062 348.269531 C 457.894531 337.21875 448.683594 325.980469 446.617188 323.210938 C 444.363281 320.449219 438.347656 313.148438 433.085938 306.839844 L 423.6875 295.390625 L 430.265625 282.179688 C 446.429688 250.410156 462.78125 215.890625 462.78125 213.71875 C 462.78125 212.339844 460.523438 209.578125 457.707031 207.609375 C 454.699219 205.628906 450 201.679688 446.804688 198.53125 C 443.796875 195.570312 440.414062 193 439.476562 193 C 438.535156 193 434.589844 190.050781 430.644531 186.488281 C 420.492188 177.621094 412.414062 170.710938 407.339844 167.359375 C 404.894531 165.78125 396.0625 159.070312 387.605469 152.558594 C 379.148438 146.050781 366.929688 136.980469 360.730469 132.238281 C 354.339844 127.5 345.882812 121 342.121094 117.839844 C 338.363281 114.679688 334.230469 112.121094 333.289062 112.121094 C 332.160156 112.121094 331.222656 111.328125 331.222656 110.339844 C 331.222656 109.359375 328.214844 107.179688 324.644531 105.410156 C 321.074219 103.628906 317.691406 101.269531 316.9375 100.078125 C 316.375 98.898438 313.933594 97.320312 311.863281 96.140625 C 309.609375 95.148438 303.972656 91.199219 299.273438 87.460938 C 294.574219 83.710938 287.996094 79.171875 284.800781 77.390625 C 281.417969 75.621094 278.597656 73.449219 278.597656 72.460938 C 278.597656 71.480469 277.472656 70.691406 275.96875 70.691406 C 274.464844 70.691406 268.824219 64.960938 263.5625 57.859375 C 258.113281 50.761719 252.851562 45.230469 251.535156 45.628906 C 247.777344 47.011719 245.898438 58.449219 248.527344 63.589844 C 252.664062 72.070312 354.339844 175.050781 368.246094 185.109375 C 380.839844 194.191406 380.839844 196.558594 368.433594 216.089844 C 365.617188 220.621094 363.171875 224.960938 363.171875 225.558594 C 363.171875 226.351562 361.480469 229.308594 359.601562 232.269531 C 357.535156 235.03125 353.773438 241.929688 350.957031 247.261719 C 348.136719 252.78125 343.25 262.058594 340.054688 267.96875 C 337.046875 273.890625 331.597656 284.550781 328.214844 291.648438 C 320.699219 306.640625 319.757812 304.269531 343.8125 333.46875 C 352.460938 343.929688 359.414062 353 359.414062 353.601562 C 359.414062 354.578125 369.1875 366.421875 377.644531 375.691406 C 380.085938 378.261719 381.964844 381.019531 381.964844 381.808594 C 381.964844 382.601562 386.664062 388.710938 392.304688 395.03125 C 397.941406 401.53125 402.640625 407.058594 402.640625 407.648438 C 402.640625 408.050781 408.089844 414.949219 414.855469 422.839844 C 421.621094 430.730469 427.070312 437.640625 427.070312 438.429688 C 427.070312 439.019531 430.644531 443.359375 434.777344 447.898438 C 439.101562 452.628906 444.738281 459.539062 447.558594 463.289062 C 450.1875 467.03125 455.261719 473.148438 458.644531 477.101562 C 462.214844 480.851562 467.292969 487.160156 469.921875 490.910156 C 472.742188 494.660156 479.320312 502.75 484.769531 508.660156 C 490.21875 514.578125 494.730469 520.5 494.730469 521.488281 C 494.730469 522.671875 499.429688 528.589844 505.066406 534.308594 C 510.707031 540.230469 515.402344 545.949219 515.402344 546.738281 C 515.402344 548.121094 523.671875 558.179688 533.445312 568.640625 C 535.511719 571.011719 538.144531 574.359375 539.085938 576.140625 C 540.023438 577.710938 545.097656 584.421875 550.546875 590.730469 C 571.785156 615.988281 586.820312 635.910156 586.820312 638.871094 C 586.820312 640.648438 588.511719 647.949219 590.578125 654.859375 C 598.847656 682.28125 598.660156 680.699219 595.277344 693.128906 C 589.640625 714.429688 584.753906 734.359375 583.0625 741.460938 C 581.183594 749.75 576.109375 771.449219 573.664062 780.921875 C 561.074219 831.621094 554.496094 862.199219 547.355469 902.25 C 546.039062 908.761719 544.347656 918.429688 543.40625 923.949219 C 539.273438 945.851562 534.386719 980.96875 532.320312 1001.878906 C 531.566406 1011.148438 529.875 1025.75 528.746094 1034.429688 C 526.117188 1055.539062 522.921875 1126.371094 522.921875 1161.089844 C 522.921875 1179.050781 522.167969 1189.308594 521.042969 1189.308594 C 519.914062 1189.308594 515.589844 1191.671875 511.269531 1194.628906 C 506.945312 1197.789062 500.933594 1201.730469 497.738281 1203.898438 C 494.542969 1205.871094 491.535156 1208.050781 490.972656 1208.839844 C 490.40625 1209.429688 487.589844 1211.398438 484.394531 1212.980469 C 481.386719 1214.558594 473.492188 1219.691406 466.914062 1224.21875 C 460.335938 1228.960938 454.511719 1232.710938 454.136719 1232.710938 C 453.570312 1232.710938 449.4375 1235.269531 444.925781 1238.621094 C 440.414062 1241.78125 436.28125 1244.539062 435.71875 1244.539062 C 435.152344 1244.539062 424.816406 1251.253906 412.976562 1259.339844 C 400.949219 1267.429688 390.800781 1274.136719 390.421875 1274.136719 C 389.484375 1274.136719 345.882812 1303.140625 343.0625 1305.703125 C 341.746094 1306.691406 340.429688 1307.675781 339.867188 1307.675781 C 339.304688 1307.675781 331.597656 1312.609375 322.765625 1318.527344 C 314.121094 1324.445312 306.414062 1329.378906 305.851562 1329.378906 C 305.285156 1329.378906 303.78125 1330.363281 302.46875 1331.351562 C 299.460938 1334.113281 256.046875 1362.917969 254.917969 1362.917969 C 254.542969 1362.917969 247.964844 1367.058594 240.257812 1372.191406 C 232.554688 1377.515625 223.910156 1383.238281 220.902344 1385.011719 C 218.082031 1386.984375 213.949219 1389.550781 212.066406 1390.933594 C 179.554688 1413.421875 159.632812 1425.65625 151.738281 1427.628906 C 146.664062 1429.007812 138.207031 1431.769531 132.945312 1433.742188 C 110.957031 1442.421875 97.613281 1447.949219 89.15625 1451.894531 C 57.394531 1466.691406 53.445312 1468.664062 40.855469 1476.355469 C 34.652344 1480.105469 26.757812 1484.644531 23.5625 1486.417969 C 20.179688 1488.195312 17.363281 1490.363281 17.363281 1491.351562 C 17.363281 1492.335938 16.234375 1493.125 14.917969 1493.125 C 13.601562 1493.125 10.785156 1494.703125 8.714844 1496.679688 C 6.835938 1498.652344 3.453125 1501.019531 1.386719 1502.003906 C -1.621094 1503.1875 0.257812 1504.371094 10.785156 1507.132812 C 21.121094 1509.894531 32.210938 1510.683594 62.46875 1510.683594 C 83.703125 1510.882812 106.070312 1509.894531 112.273438 1508.710938 C 118.472656 1507.527344 129 1505.949219 135.765625 1504.964844 C 166.398438 1500.425781 171.097656 1499.441406 178.613281 1495.886719 C 182.9375 1493.914062 186.507812 1491.546875 186.507812 1490.757812 C 186.507812 1489.773438 187.449219 1489.179688 188.386719 1489.179688 C 189.515625 1489.179688 197.597656 1484.25 206.242188 1478.328125 C 215.074219 1472.410156 222.78125 1467.480469 223.15625 1467.480469 C 223.910156 1467.480469 245.898438 1453.078125 249.46875 1450.316406 C 253.789062 1446.765625 267.324219 1437.886719 268.261719 1437.886719 C 269.015625 1437.886719 273.148438 1435.125 277.660156 1431.96875 C 282.167969 1428.613281 286.679688 1426.050781 287.621094 1426.050781 C 288.746094 1426.050781 289.875 1425.261719 290.25 1424.46875 C 290.628906 1423.679688 296.265625 1419.339844 302.84375 1415 C 309.421875 1410.859375 317.503906 1405.53125 320.699219 1403.359375 C 324.082031 1401.191406 332.539062 1395.667969 339.867188 1390.933594 C 347.007812 1386.394531 358.847656 1378.503906 365.992188 1373.769531 C 373.320312 1368.835938 380.839844 1363.902344 382.90625 1362.917969 C 384.972656 1361.929688 394.746094 1355.617188 404.519531 1348.910156 C 414.292969 1342.203125 425.003906 1335.097656 428.199219 1333.324219 C 431.394531 1331.351562 441.355469 1324.839844 450.375 1318.726562 C 459.398438 1312.609375 467.292969 1307.675781 468.042969 1307.675781 C 468.984375 1307.675781 471.238281 1306.097656 473.304688 1304.125 C 477.25 1300.574219 481.011719 1298.007812 494.730469 1290.316406 C 499.429688 1287.554688 504.878906 1283.804688 506.945312 1282.03125 C 509.015625 1280.253906 513.335938 1277.6875 516.34375 1276.109375 C 519.539062 1274.53125 522.546875 1272.363281 523.296875 1271.179688 C 524.050781 1270.191406 524.988281 1269.796875 525.550781 1270.390625 C 526.679688 1271.574219 527.054688 1274.925781 530.4375 1318.527344 C 534.761719 1373.175781 542.65625 1439.859375 545.472656 1446.765625 C 546.414062 1448.933594 547.542969 1455.640625 548.105469 1461.5625 C 549.234375 1473.398438 551.488281 1487.800781 554.683594 1505.359375 C 555.8125 1511.671875 557.503906 1521.535156 558.441406 1527.058594 C 561.449219 1545.011719 565.582031 1564.148438 573.664062 1597.6875 C 577.988281 1615.640625 581.933594 1633.199219 582.5 1636.75 C 583.0625 1640.304688 584.191406 1643.65625 585.128906 1644.25 C 586.070312 1644.839844 586.820312 1647.207031 586.820312 1649.574219 C 586.820312 1651.941406 589.453125 1661.414062 592.648438 1670.683594 C 595.65625 1679.957031 599.601562 1691.792969 601.292969 1697.320312 C 605.238281 1710.535156 609.5625 1722.375 613.320312 1730.265625 C 616.140625 1735.988281 615.386719 1833.644531 612.757812 1836.011719 C 611.441406 1837 606.179688 1838.378906 600.917969 1839.167969 C 595.84375 1839.761719 586.820312 1841.140625 581.183594 1842.128906 C 575.542969 1843.113281 566.710938 1844.691406 561.449219 1845.285156 C 550.546875 1846.664062 543.59375 1849.820312 543.59375 1853.175781 C 543.59375 1855.347656 540.023438 1865.40625 533.257812 1882.769531 C 531.941406 1885.925781 528.183594 1896.183594 524.988281 1905.457031 C 521.605469 1914.730469 518.035156 1923.804688 517.09375 1925.578125 C 516.15625 1927.554688 515.402344 1930.511719 515.402344 1932.089844 C 515.402344 1933.667969 514.652344 1936.628906 513.710938 1938.601562 C 512.773438 1940.375 511.082031 1944.519531 509.765625 1947.875 C 508.449219 1951.03125 506.757812 1955.371094 505.820312 1957.144531 C 504.878906 1959.117188 504.128906 1961.683594 504.128906 1962.867188 C 504.128906 1964.050781 503 1967.800781 501.496094 1971.152344 C 499.992188 1974.703125 496.234375 1984.964844 492.851562 1994.234375 C 489.65625 2003.507812 486.085938 2012.78125 485.332031 2014.949219 C 483.640625 2019.6875 478.191406 2034.679688 471.238281 2055.394531 C 468.417969 2063.484375 465.410156 2071.769531 464.472656 2073.546875 C 463.53125 2075.519531 462.78125 2078.476562 462.78125 2080.449219 C 462.78125 2082.226562 461.089844 2088.738281 459.210938 2094.65625 C 457.332031 2100.769531 453.757812 2113.59375 451.691406 2123.460938 C 449.4375 2133.125 446.804688 2144.371094 445.867188 2148.121094 C 437.785156 2182.644531 433.085938 2250.710938 438.910156 2250.710938 C 441.730469 2250.710938 451.503906 2240.648438 451.503906 2237.6875 C 451.503906 2236.703125 454.136719 2233.152344 457.140625 2229.597656 C 460.335938 2226.046875 462.78125 2222.890625 462.78125 2222.300781 C 462.78125 2221.707031 466.351562 2215.988281 470.863281 2209.871094 C 475.183594 2203.558594 480.070312 2196.0625 481.386719 2192.902344 C 482.890625 2189.945312 484.769531 2187.578125 485.710938 2187.578125 C 486.460938 2187.578125 487.210938 2186.789062 487.210938 2185.605469 C 487.210938 2184.617188 490.03125 2179.09375 493.414062 2173.371094 C 496.796875 2167.652344 500.746094 2160.15625 502.246094 2156.996094 C 503.75 2153.644531 505.441406 2150.683594 506.007812 2150.09375 C 507.324219 2148.910156 532.695312 2095.050781 537.957031 2082.027344 C 543.78125 2068.019531 547.542969 2058.945312 549.234375 2054.410156 C 549.984375 2052.238281 552.050781 2047.304688 553.554688 2043.558594 C 555.058594 2039.808594 558.066406 2031.324219 560.507812 2024.816406 C 565.582031 2010.214844 568.027344 2004.101562 570.09375 1999.761719 C 571.035156 1997.785156 571.785156 1994.828125 571.785156 1993.25 C 571.785156 1991.671875 572.539062 1988.710938 573.476562 1986.738281 C 574.417969 1984.964844 576.109375 1980.625 577.425781 1977.464844 C 578.738281 1974.113281 580.429688 1969.96875 581.371094 1968.195312 C 582.3125 1966.222656 583.0625 1963.261719 583.0625 1961.484375 C 583.0625 1959.710938 584.191406 1955.960938 585.695312 1953.199219 C 587.195312 1950.242188 590.390625 1942.546875 592.835938 1936.035156 L 597.347656 1924.199219 L 607.496094 1922.816406 C 613.132812 1922.226562 625.160156 1920.648438 633.996094 1919.464844 C 642.828125 1918.28125 652.414062 1916.503906 655.230469 1915.519531 L 660.117188 1913.347656 L 660.117188 1880.796875 C 660.117188 1862.84375 660.871094 1848.242188 661.621094 1848.242188 C 662.5625 1848.242188 667.070312 1855.9375 671.582031 1865.40625 C 676.09375 1875.074219 681.355469 1885.332031 683.421875 1888.292969 C 686.242188 1892.832031 686.804688 1897.367188 686.617188 1913.152344 C 686.242188 1931.5 688.496094 1942.941406 692.445312 1942.941406 C 693.195312 1942.941406 693.945312 1944.324219 693.945312 1945.902344 C 693.945312 1947.480469 694.699219 1948.859375 695.449219 1948.859375 C 696.390625 1948.859375 697.894531 1950.636719 698.832031 1952.609375 C 699.773438 1954.777344 709.546875 1965.234375 720.632812 1975.886719 C 745.820312 2000.351562 746.007812 2000.351562 750.328125 2000.746094 C 752.398438 2000.945312 754.089844 2001.929688 754.089844 2003.3125 C 754.089844 2004.496094 757.847656 2009.425781 762.546875 2014.160156 C 767.242188 2018.898438 771.003906 2023.632812 771.003906 2024.816406 C 771.003906 2025.800781 773.632812 2028.957031 776.640625 2031.523438 C 779.835938 2034.089844 782.277344 2037.046875 782.277344 2038.035156 C 782.277344 2039.21875 784.722656 2042.375 787.542969 2045.136719 C 790.546875 2048.09375 793.742188 2052.042969 794.683594 2053.816406 C 795.621094 2055.59375 801.824219 2063.089844 808.589844 2070.585938 C 819.867188 2082.816406 857.078125 2126.617188 868.730469 2141.214844 C 874.746094 2148.910156 901.808594 2176.921875 910.078125 2184.421875 C 913.648438 2187.578125 919.664062 2192.902344 923.234375 2196.257812 C 926.992188 2199.613281 932.253906 2204.148438 935.261719 2206.320312 C 938.269531 2208.488281 944.847656 2213.621094 950.109375 2217.960938 C 955.183594 2222.101562 966.648438 2229.203125 975.667969 2233.742188 L 991.832031 2241.832031 L 1019.078125 2241.632812 C 1047.269531 2241.4375 1070.019531 2237.6875 1098.390625 2228.808594 C 1109.859375 2225.257812 1115.308594 2225.0625 1154.78125 2225.652344 C 1180.339844 2226.046875 1201.390625 2227.230469 1205.140625 2228.414062 C 1230.699219 2237.097656 1259.648438 2241.832031 1287.839844 2241.832031 C 1312.460938 2241.832031 1313.589844 2241.632812 1325.429688 2235.714844 C 1340.839844 2227.824219 1357.378906 2217.367188 1366.398438 2209.476562 C 1370.160156 2206.121094 1375.230469 2201.78125 1377.679688 2199.808594 C 1396.089844 2185.210938 1431.609375 2147.726562 1456.800781 2116.554688 C 1473.898438 2095.246094 1474.269531 2094.65625 1480.480469 2085.972656 C 1483.671875 2081.632812 1487.058594 2077.097656 1488.179688 2075.714844 C 1489.308594 2074.53125 1493.070312 2068.808594 1496.640625 2062.890625 C 1500.019531 2057.171875 1503.589844 2052.042969 1504.351562 2051.84375 C 1505.289062 2051.449219 1505.851562 2049.871094 1505.851562 2048.292969 C 1505.851562 2046.714844 1506.410156 2045.53125 1507.351562 2045.53125 C 1508.109375 2045.53125 1510.359375 2042.375 1512.429688 2038.429688 C 1517.691406 2027.972656 1535.359375 2011.792969 1550.769531 2003.3125 C 1570.128906 1992.65625 1612.21875 1951.03125 1614.289062 1940.574219 C 1614.859375 1937.613281 1616.171875 1935.050781 1617.109375 1935.050781 C 1618.238281 1935.050781 1618.609375 1932.089844 1618.238281 1928.539062 L 1617.480469 1922.027344 L 1628.011719 1922.621094 C 1650.558594 1924.199219 1650.378906 1924 1656.390625 1938.601562 C 1659.398438 1945.902344 1662.78125 1953.398438 1663.71875 1955.171875 C 1664.851562 1957.144531 1665.601562 1960.105469 1665.601562 1961.683594 C 1665.601562 1963.261719 1666.351562 1966.222656 1667.289062 1968.195312 C 1671.238281 1976.085938 1676.878906 1990.488281 1676.878906 1992.855469 C 1676.878906 1994.234375 1677.628906 1996.207031 1678.378906 1997.390625 C 1679.320312 1998.378906 1681.570312 2003.507812 1683.269531 2009.03125 C 1686.839844 2019.882812 1689.660156 2026.984375 1692.101562 2032.113281 C 1693.039062 2034.089844 1693.789062 2036.851562 1693.789062 2038.429688 C 1693.789062 2040.007812 1695.480469 2044.542969 1697.359375 2048.882812 C 1702.058594 2058.945312 1708.820312 2074.730469 1708.820312 2076.109375 C 1708.820312 2076.703125 1711.828125 2084 1715.589844 2092.484375 C 1719.351562 2100.769531 1723.300781 2109.847656 1724.429688 2112.609375 C 1725.738281 2115.371094 1730.808594 2125.628906 1736.070312 2135.296875 C 1741.148438 2145.160156 1746.789062 2155.8125 1748.289062 2158.96875 C 1749.800781 2162.324219 1753.371094 2168.636719 1756.191406 2173.175781 C 1759 2177.714844 1761.449219 2181.855469 1761.449219 2182.449219 C 1761.449219 2184.222656 1786.070312 2221.707031 1796.96875 2236.308594 C 1802.800781 2244.394531 1808.808594 2250.316406 1810.308594 2250.117188 C 1815.761719 2249.328125 1814.820312 2212.632812 1808.25 2169.820312 C 1805.800781 2154.828125 1792.640625 2098.207031 1788.890625 2087.355469 C 1787.570312 2083.410156 1785.320312 2076.503906 1784.191406 2072.164062 C 1782.878906 2067.824219 1780.238281 2059.539062 1778.179688 2053.816406 C 1776.300781 2048.292969 1772.910156 2038.429688 1770.660156 2032.113281 C 1767.089844 2022.054688 1756.75 1993.644531 1751.679688 1980.425781 C 1750.550781 1977.664062 1749.039062 1973.914062 1748.109375 1972.140625 C 1747.160156 1970.167969 1746.410156 1967.207031 1746.410156 1965.628906 C 1746.410156 1964.050781 1745.660156 1961.089844 1744.71875 1959.117188 C 1742.089844 1953.792969 1739.839844 1947.480469 1730.441406 1921.238281 C 1725.550781 1907.625 1721.039062 1894.804688 1720.101562 1892.632812 C 1719.351562 1890.460938 1717.660156 1885.53125 1716.339844 1881.78125 C 1715.03125 1878.035156 1712.390625 1871.128906 1710.519531 1866.589844 C 1708.449219 1861.855469 1706.949219 1856.925781 1706.949219 1855.542969 C 1706.949219 1851.003906 1700.738281 1846.863281 1692.851562 1845.679688 C 1684.769531 1844.496094 1670.671875 1841.929688 1649.628906 1837.789062 L 1636.46875 1835.222656 L 1635.898438 1798.132812 C 1635.71875 1776.429688 1636.28125 1756.703125 1637.410156 1750.785156 C 1638.539062 1745.257812 1640.039062 1737.761719 1640.601562 1734.210938 C 1641.171875 1730.660156 1642.289062 1727.304688 1643.230469 1726.714844 C 1644.171875 1726.121094 1644.929688 1723.164062 1644.929688 1720.007812 C 1644.929688 1716.851562 1645.859375 1713.695312 1646.808594 1713.101562 C 1647.75 1712.511719 1648.679688 1709.746094 1648.679688 1707.183594 C 1648.679688 1704.617188 1649.628906 1701.855469 1650.558594 1701.265625 C 1651.691406 1700.671875 1652.441406 1697.515625 1652.441406 1694.359375 C 1652.441406 1691.203125 1653.378906 1688.046875 1654.320312 1687.453125 C 1655.449219 1686.863281 1656.199219 1683.707031 1656.199219 1680.351562 C 1656.199219 1677.195312 1657.140625 1674.628906 1658.078125 1674.628906 C 1659.210938 1674.628906 1659.960938 1671.867188 1659.960938 1668.710938 C 1659.960938 1665.359375 1660.898438 1662.792969 1661.839844 1662.792969 C 1662.96875 1662.792969 1663.71875 1659.835938 1663.71875 1656.085938 C 1663.71875 1652.335938 1664.660156 1648.589844 1665.601562 1647.996094 C 1666.730469 1647.40625 1667.480469 1643.65625 1667.480469 1639.910156 C 1667.480469 1636.160156 1668.421875 1633.199219 1669.359375 1633.199219 C 1670.480469 1633.199219 1671.238281 1631.226562 1671.238281 1628.859375 C 1671.238281 1626.492188 1671.988281 1621.957031 1672.929688 1618.601562 C 1679.128906 1597.097656 1689.089844 1550.539062 1691.160156 1533.570312 C 1691.71875 1529.230469 1692.851562 1523.902344 1693.789062 1521.734375 C 1694.730469 1519.5625 1696.039062 1513.25 1696.609375 1507.921875 C 1697.171875 1502.398438 1698.109375 1493.519531 1698.679688 1488.195312 C 1699.238281 1482.671875 1700.558594 1477.539062 1701.5 1476.554688 C 1702.429688 1475.371094 1703.191406 1470.042969 1703.191406 1464.71875 C 1703.191406 1459.191406 1704.5 1452.089844 1706 1448.933594 C 1707.511719 1445.976562 1708.820312 1439.859375 1708.820312 1435.714844 C 1708.820312 1431.375 1709.578125 1428.023438 1710.519531 1428.023438 C 1717.28125 1428.023438 1724.609375 1361.734375 1724.050781 1304.71875 C 1723.859375 1286.171875 1724.429688 1271.96875 1725.179688 1273.152344 C 1726.121094 1274.136719 1730.058594 1276.898438 1734.199219 1279.265625 C 1746.230469 1285.777344 1756.378906 1292.089844 1761.820312 1296.035156 C 1764.460938 1298.207031 1767.269531 1299.785156 1768.21875 1299.785156 C 1768.96875 1299.785156 1772.351562 1301.957031 1775.730469 1304.71875 C 1779.109375 1307.480469 1782.5 1309.648438 1783.058594 1309.648438 C 1783.808594 1309.648438 1787.949219 1312.214844 1792.460938 1315.566406 C 1796.96875 1318.726562 1801.480469 1321.488281 1802.230469 1321.488281 C 1803.171875 1321.488281 1805.609375 1323.066406 1807.679688 1324.839844 C 1809.558594 1326.8125 1814.640625 1330.167969 1818.769531 1332.535156 C 1829.109375 1338.257812 1861.808594 1359.167969 1862.941406 1360.945312 C 1863.5 1361.734375 1864.820312 1362.71875 1865.75 1363.113281 C 1866.878906 1363.507812 1873.648438 1367.652344 1880.789062 1372.386719 C 1888.121094 1377.121094 1895.640625 1381.855469 1897.699219 1383.238281 C 1899.769531 1384.617188 1906.160156 1388.960938 1912.179688 1392.90625 C 1918 1397.046875 1923.828125 1400.402344 1924.769531 1400.402344 C 1925.890625 1400.402344 1926.839844 1401.191406 1926.839844 1402.175781 C 1926.839844 1403.164062 1928.339844 1404.347656 1930.21875 1405.136719 C 1931.910156 1405.726562 1939.988281 1410.660156 1948.070312 1416.183594 C 1956.148438 1421.511719 1963.671875 1426.050781 1964.609375 1426.050781 C 1965.550781 1426.050781 1966.308594 1426.839844 1966.308594 1427.628906 C 1966.308594 1428.417969 1971.941406 1432.757812 1978.890625 1436.898438 C 1985.660156 1441.238281 1993.929688 1446.566406 1997.308594 1448.738281 C 2000.511719 1450.90625 2007.269531 1455.246094 2012.539062 1458.601562 C 2017.609375 1461.757812 2022.121094 1465.113281 2022.308594 1465.902344 C 2022.679688 1466.691406 2023.808594 1467.480469 2024.75 1467.480469 C 2025.691406 1467.480469 2030.949219 1470.636719 2036.589844 1474.382812 C 2042.230469 1478.132812 2047.871094 1481.289062 2049 1481.289062 C 2049.941406 1481.289062 2050.878906 1482.078125 2050.878906 1482.867188 C 2050.878906 1486.417969 2078.5 1499.835938 2089.398438 1501.414062 C 2095.609375 1502.398438 2106.128906 1503.976562 2112.890625 1504.964844 C 2119.660156 1505.949219 2130.191406 1507.527344 2136.390625 1508.710938 C 2154.808594 1512.261719 2219.269531 1511.472656 2236 1507.527344 C 2243.699219 1505.753906 2250.089844 1503.582031 2250.089844 1502.597656 C 2250.089844 1501.808594 2248.96875 1501.019531 2247.648438 1501.019531 C 2246.339844 1501.019531 2243.328125 1499.242188 2241.070312 1497.074219 C 2238.820312 1494.902344 2236.558594 1493.125 2235.808594 1493.125 C 2235.25 1493.125 2232.429688 1491.351562 2229.800781 1489.378906 C 2221.898438 1483.65625 2205.550781 1473.988281 2189.011719 1465.703125 C 2161.199219 1451.5 2130.558594 1437.886719 2126.808594 1437.886719 C 2125.300781 1437.886719 2122.671875 1437.097656 2120.789062 1436.109375 C 2112.519531 1431.769531 2096.171875 1426.050781 2091.660156 1426.050781 C 2089.96875 1426.050781 2080.761719 1420.523438 2070.980469 1413.621094 C 2061.398438 1406.714844 2052.378906 1400.597656 2050.878906 1399.808594 C 2049.371094 1399.019531 2038.851562 1392.3125 2027.761719 1384.617188 C 2016.480469 1377.121094 2006.710938 1370.808594 2005.960938 1370.808594 C 2005.210938 1370.808594 2002.949219 1369.03125 2001.070312 1366.863281 C 1999.191406 1364.691406 1996.941406 1362.917969 1995.808594 1362.917969 C 1994.871094 1362.917969 1986.980469 1357.984375 1978.328125 1352.066406 C 1969.5 1346.148438 1961.980469 1341.214844 1961.421875 1341.214844 C 1960.851562 1341.214844 1956.71875 1338.453125 1952.210938 1335.296875 C 1947.699219 1331.941406 1943.558594 1329.378906 1943.191406 1329.378906 C 1942.429688 1329.378906 1918.191406 1313.003906 1914.621094 1310.042969 C 1913.679688 1309.253906 1911.429688 1307.875 1909.921875 1307.085938 C 1908.421875 1306.492188 1901.28125 1301.757812 1893.949219 1296.824219 C 1886.808594 1291.894531 1879.46875 1287.355469 1877.96875 1286.566406 C 1876.46875 1285.777344 1874.398438 1284.398438 1873.269531 1283.609375 C 1870.449219 1281.042969 1849.21875 1267.234375 1846.019531 1265.65625 C 1844.519531 1264.867188 1835.121094 1258.945312 1825.351562 1252.238281 C 1808.25 1240.601562 1789.640625 1228.371094 1781.929688 1223.628906 C 1780.058594 1222.449219 1776.859375 1220.078125 1774.980469 1218.308594 C 1773.101562 1216.328125 1771.03125 1214.949219 1770.28125 1214.949219 C 1769.71875 1214.949219 1762.949219 1210.808594 1755.621094 1205.480469 C 1748.289062 1200.351562 1740.769531 1195.21875 1739.078125 1194.238281 C 1737.390625 1193.058594 1735.699219 1191.671875 1735.140625 1191.078125 C 1734.570312 1190.488281 1732.691406 1189.5 1731 1188.710938 C 1728 1187.53125 1727.621094 1184.371094 1727.621094 1159.320312 C 1727.621094 1124.589844 1724.429688 1054.359375 1721.789062 1032.660156 C 1720.660156 1023.980469 1719.160156 1009.570312 1718.21875 1000.890625 C 1715.398438 975.25 1711.269531 946.839844 1707.128906 923.949219 C 1706.199219 918.429688 1704.5 908.761719 1703.378906 902.25 C 1702.25 895.738281 1699.988281 884.691406 1698.300781 877.589844 C 1694.160156 859.050781 1692.46875 849.96875 1690.96875 841.089844 C 1690.21875 836.75 1689.089844 831.429688 1688.148438 829.25 C 1686.648438 825.511719 1686.089844 823.339844 1683.449219 806.570312 C 1682.699219 802.820312 1681.570312 797.890625 1680.628906 795.710938 C 1678.941406 791.769531 1677.628906 784.671875 1675.558594 770.460938 C 1675 766.519531 1673.871094 762.570312 1672.929688 761.980469 C 1671.988281 761.390625 1671.238281 759.019531 1671.238281 756.851562 C 1671.238281 754.480469 1670.480469 749.941406 1669.359375 746.589844 C 1667.289062 739.691406 1662.03125 717.390625 1660.519531 709.898438 C 1660.148438 707.128906 1659.019531 703.191406 1658.078125 701.019531 C 1652.628906 688.191406 1652.441406 681.878906 1657.140625 664.71875 C 1659.589844 655.441406 1662.589844 644 1663.71875 639.460938 C 1664.660156 635.121094 1668.039062 628.609375 1670.859375 625.460938 C 1673.679688 622.109375 1678.191406 616.578125 1681.011719 612.828125 C 1691.351562 599.609375 1712.960938 572.390625 1722.539062 561.140625 C 1728 554.828125 1733.070312 548.121094 1734.011719 546.539062 C 1734.949219 544.960938 1739.839844 539.050781 1744.71875 533.519531 C 1749.800781 528 1753.929688 522.871094 1753.929688 522.28125 C 1753.929688 521.488281 1757.308594 517.148438 1761.640625 512.410156 C 1765.769531 507.679688 1772.539062 499.191406 1776.480469 493.871094 C 1780.238281 488.339844 1785.878906 481.828125 1788.699219 479.070312 C 1791.519531 476.308594 1796.96875 469.601562 1800.910156 464.269531 C 1804.679688 458.75 1811.441406 450.859375 1815.761719 446.519531 C 1819.898438 442.179688 1823.46875 437.640625 1823.46875 436.648438 C 1823.46875 435.46875 1827.601562 430.140625 1832.488281 424.820312 C 1837.378906 419.289062 1844.328125 410.808594 1848.089844 406.070312 C 1851.851562 401.140625 1857.671875 394.238281 1860.871094 390.878906 C 1864.058594 387.328125 1866.699219 383.980469 1866.699219 383.390625 C 1866.699219 382.988281 1877.410156 369.378906 1890.378906 353.398438 C 1903.339844 337.21875 1916.878906 320.648438 1920.261719 316.308594 C 1923.828125 311.96875 1926.648438 307.03125 1926.839844 305.261719 C 1926.839844 302.300781 1922.890625 293.820312 1908.609375 266 C 1899.210938 247.851562 1894.699219 239.558594 1890.941406 234.039062 C 1888.871094 231.28125 1887.371094 228.320312 1887.371094 227.53125 C 1887.371094 226.941406 1883.609375 220.230469 1878.910156 212.730469 C 1874.210938 205.230469 1870.449219 198.328125 1870.449219 197.539062 C 1870.449219 195.960938 1922.140625 145.660156 1923.828125 145.660156 C 1924.390625 145.660156 1942.058594 127.308594 1963.300781 105.019531 C 1997.5 69.109375 2002.011719 63.589844 2002.011719 58.058594 C 2002.011719 54.511719 2000.878906 49.96875 1999.378906 48 C 1996.378906 43.660156 1994.871094 44.640625 1985.46875 59.238281 C 1982.089844 64.371094 1976.449219 70.089844 1972.878906 71.871094 C 1969.308594 73.640625 1966.308594 75.820312 1966.308594 76.800781 C 1966.308594 77.789062 1965.359375 78.578125 1964.230469 78.578125 C 1963.109375 78.578125 1954.269531 84.300781 1944.691406 91.398438 C 1934.921875 98.5 1926.269531 104.230469 1925.328125 104.230469 C 1924.199219 104.230469 1923.078125 105.019531 1922.699219 105.808594 C 1922.140625 107.179688 1896.199219 127.308594 1887.738281 132.828125 C 1886.050781 133.820312 1879.660156 138.75 1873.269531 143.679688 C 1867.070312 148.609375 1859.929688 154.140625 1857.300781 155.910156 C 1854.671875 157.691406 1850.71875 160.851562 1848.46875 163.210938 C 1846.210938 165.578125 1843.769531 167.359375 1843.199219 167.359375 C 1842.640625 167.359375 1834.929688 173.078125 1826.289062 180.179688 C 1817.449219 187.28125 1809.75 193 1809.371094 193 C 1808.808594 193 1804.859375 196.558594 1800.539062 200.890625 C 1796.03125 205.230469 1790.949219 209.378906 1789.261719 209.96875 C 1787.378906 210.558594 1785.878906 211.75 1785.878906 212.929688 C 1785.878906 215.101562 1818.390625 281.980469 1822.339844 288.101562 C 1826.660156 294.410156 1826.289062 295.589844 1817.828125 304.46875 C 1813.878906 308.808594 1810.5 313.148438 1810.308594 314.339844 C 1810.308594 315.320312 1806.558594 320.449219 1802.230469 325.378906 C 1793.960938 335.050781 1785.320312 345.699219 1744.539062 396.210938 C 1731 412.980469 1715.03125 432.511719 1709.199219 439.410156 C 1703.378906 446.320312 1698.109375 452.828125 1697.730469 454.019531 C 1697.359375 455 1694.160156 459.140625 1690.589844 463.089844 C 1686.839844 467.03125 1681.390625 473.738281 1678.378906 478.089844 C 1675.371094 482.429688 1668.789062 490.511719 1663.910156 496.039062 C 1658.828125 501.558594 1654.511719 507.089844 1654.128906 508.269531 C 1653.761719 509.449219 1649.058594 515.179688 1643.980469 520.890625 C 1631.019531 535.101562 1627.261719 541.210938 1623.308594 555.03125 C 1621.429688 561.53125 1618.988281 568.839844 1618.050781 571.199219 C 1616.171875 575.738281 1615.980469 575.539062 1611.660156 568.839844 C 1605.640625 559.558594 1602.070312 557.980469 1587.789062 557.980469 C 1581.019531 557.980469 1575.390625 557.191406 1575.390625 556.210938 C 1575.390625 555.03125 1577.078125 551.28125 1578.960938 547.730469 C 1586.101562 534.710938 1587.601562 525.628906 1584.96875 508.070312 C 1581.96875 486.960938 1576.890625 468.421875 1567.871094 444.550781 C 1561.859375 428.761719 1541.179688 386.941406 1534.230469 376.679688 C 1531.96875 373.519531 1530.28125 370.371094 1530.28125 369.578125 C 1530.28125 368.980469 1526.519531 362.078125 1521.820312 354.578125 C 1517.128906 347.089844 1513.371094 340.570312 1513.371094 339.980469 C 1513.371094 339.589844 1509.230469 332.289062 1504.351562 323.808594 C 1499.269531 315.320312 1492.320312 302.5 1488.558594 295.589844 C 1478.21875 275.46875 1473.710938 267.378906 1469.949219 261.660156 C 1467.890625 258.898438 1466.378906 255.738281 1466.378906 254.75 C 1466.378906 253.570312 1464.691406 251.199219 1462.621094 249.230469 C 1460.558594 247.261719 1458.859375 244.890625 1458.859375 243.710938 C 1458.859375 241.53125 1445.519531 222 1443.449219 221.019531 C 1442.511719 220.621094 1441.949219 219.238281 1441.949219 218.058594 C 1441.949219 216.679688 1439.320312 212.929688 1436.308594 209.378906 C 1433.121094 205.828125 1430.671875 202.28125 1430.671875 201.488281 C 1430.671875 200.699219 1427.671875 196.558594 1424.089844 192.410156 C 1420.519531 188.269531 1417.519531 184.320312 1417.519531 183.53125 C 1417.519531 182.75 1414.128906 178.410156 1410 173.671875 C 1405.859375 169.128906 1402.480469 164.789062 1402.480469 163.808594 C 1402.480469 163.019531 1397.789062 157.300781 1392.140625 151.179688 C 1386.511719 144.871094 1381.808594 138.558594 1381.808594 137.171875 C 1381.808594 135.589844 1383.5 132.828125 1385.570312 130.859375 C 1387.640625 128.890625 1389.328125 126.121094 1389.328125 124.738281 C 1389.328125 123.359375 1389.890625 121.980469 1390.828125 121.589844 C 1391.578125 121.191406 1395.339844 116.460938 1399.289062 110.929688 L 1406.238281 100.679688 L 1458.488281 99.691406 C 1528.21875 98.109375 1561.289062 94.75 1609.21875 84.300781 C 1630.078125 79.558594 1656.011719 71.871094 1662.21875 68.519531 C 1664.089844 67.53125 1666.730469 66.738281 1668.230469 66.738281 C 1681.949219 66.738281 1651.5 54.511719 1621.808594 48 C 1570.878906 36.949219 1506.980469 32.210938 1430.671875 33.988281 L 1371.46875 35.371094 L 1367.339844 40.699219 C 1361.699219 48 1340.269531 78.578125 1336.519531 84.5 C 1334.640625 87.261719 1331.628906 91.398438 1329.378906 93.769531 C 1327.121094 96.140625 1325.429688 98.699219 1325.429688 99.691406 C 1325.429688 101.660156 1315.648438 112.121094 1313.769531 112.121094 C 1313.019531 112.121094 1306.628906 116.058594 1299.679688 120.800781 C 1285.578125 130.269531 1270.929688 138.359375 1270.929688 136.78125 C 1270.929688 136.191406 1275.808594 129.679688 1281.820312 122.179688 C 1300.058594 99.289062 1305.878906 82.921875 1300.058594 70.089844 C 1297.050781 63.191406 1283.890625 48.980469 1280.691406 48.980469 C 1279.761719 48.980469 1277.878906 47.609375 1276.558594 46.03125 C 1274.5 43.460938 1244.800781 27.480469 1229.578125 20.96875 C 1193.121094 4.988281 1130.910156 -3.300781 1093.320312 2.621094 Z M 1093.320312 2.621094 "/>
</svg>
