<?xml version="1.0" encoding="UTF-8" standalone="no"?>
<svg
   xmlns:dc="http://purl.org/dc/elements/1.1/"
   xmlns:cc="http://creativecommons.org/ns#"
   xmlns:rdf="http://www.w3.org/1999/02/22-rdf-syntax-ns#"
   xmlns:svg="http://www.w3.org/2000/svg"
   xmlns="http://www.w3.org/2000/svg"
   xmlns:xlink="http://www.w3.org/1999/xlink"
   xmlns:sodipodi="http://sodipodi.sourceforge.net/DTD/sodipodi-0.dtd"
   xmlns:inkscape="http://www.inkscape.org/namespaces/inkscape"
   enable-background="new"
   sodipodi:docname="Hive.svg"
   xml:space="preserve"
   height="100"
   width="150"
   inkscape:version="0.48.5 r10040"
   version="1.1"
   id="svg2"
   inkscape:export-filename="/home/seb/Documents/Jeux/hive/Hive.png"
   inkscape:export-xdpi="90"
   inkscape:export-ydpi="90"><sodipodi:namedview
     pagecolor="#ffffff"
     bordercolor="#666666"
     borderopacity="1"
     objecttolerance="10"
     gridtolerance="10"
     guidetolerance="10"
     inkscape:pageopacity="0"
     inkscape:pageshadow="2"
     inkscape:window-width="150"
     inkscape:window-height="100"
     id="namedview4"
     showgrid="true"
     inkscape:zoom="0.35355339"
     inkscape:cx="1777.6694"
     inkscape:cy="805.44157"
     inkscape:window-x="0"
     inkscape:window-y="0"
     inkscape:window-maximized="1"
     inkscape:current-layer="layer11"
     units="mm"
     showguides="true"
     inkscape:guide-bbox="true"
     inkscape:document-units="mm"
     inkscape:snap-grids="true"
     inkscape:snap-to-guides="true"><inkscape:grid
       type="xygrid"
       id="grid3210"
       units="mm"
       empspacing="5"
       visible="true"
       enabled="true"
       snapvisiblegridlinesonly="true" /></sodipodi:namedview><metadata
     id="metadata8"><rdf:RDF><cc:Work
         rdf:about=""><dc:format>image/svg+xml</dc:format><dc:type
           rdf:resource="http://purl.org/dc/dcmitype/StillImage" /><dc:title /></cc:Work></rdf:RDF></metadata><defs
     id="defs6"><clipPath
       clipPathUnits="userSpaceOnUse"
       id="clipPath6724"><rect
         style="fill:none;stroke:#00ff00;stroke-width:0.38976377;stroke-linecap:square;stroke-linejoin:bevel;stroke-miterlimit:4;stroke-opacity:1;stroke-dasharray:none;stroke-dashoffset:0"
         id="rect6726"
         width="52.149124"
         height="146.72466"
         x="3107.3806"
         y="429.47333"
         rx="0"
         ry="0" /></clipPath></defs><g
     inkscape:groupmode="layer"
     id="layer11"
     inkscape:label="planche"
     style="display:inline"><g
       style="display:inline"
       inkscape:groupmode="layer"
       id="layer18"
       inkscape:label="boite"><g
         id="g34832"><g
           id="g6617"
           transform="translate(-6,10)"><g
             transform="translate(-853.1062,85.211113)"
             id="g6573"
             style="display:inline"><path
               style="fill:none;stroke:#000000;stroke-width:1.77165353;stroke-linecap:square;stroke-linejoin:bevel;stroke-miterlimit:4;stroke-opacity:1;stroke-dasharray:none;stroke-dashoffset:0;display:inline"
               d="m 2872.4686,1272.1928 -81.3413,-46.963 0,-93.926 81.3413,-46.963"
               id="use6117-9"
               inkscape:connector-curvature="0"
               sodipodi:nodetypes="cccc" /><path
               style="fill:none;stroke:#000000;stroke-width:1.77165353;stroke-linecap:square;stroke-linejoin:bevel;stroke-miterlimit:4;stroke-opacity:1;stroke-dasharray:none;stroke-dashoffset:0;display:inline"
               d="m 2872.4686,1272.1928 81.3413,-46.963"
               id="use6119-2"
               inkscape:connector-curvature="0"
               sodipodi:nodetypes="cc" /><path
               style="fill:none;stroke:#000000;stroke-width:1.77165353;stroke-linecap:square;stroke-linejoin:bevel;stroke-miterlimit:4;stroke-opacity:1;stroke-dasharray:none;stroke-dashoffset:0;display:inline"
               d="m 2953.8099,1131.3038 -81.3413,-46.963 0,-93.92598 81.3413,-46.963"
               id="use6135-4"
               inkscape:connector-curvature="0"
               sodipodi:nodetypes="cccc" /><path
               style="fill:none;stroke:#000000;stroke-width:1.77165353;stroke-linecap:square;stroke-linejoin:bevel;stroke-miterlimit:4;stroke-opacity:1;stroke-dasharray:none;stroke-dashoffset:0;display:inline"
               d="m 3035.1512,1272.1928 -81.3413,-46.963 0,-93.926 81.3413,-46.963"
               id="use6137-8"
               inkscape:connector-curvature="0"
               sodipodi:nodetypes="cccc" /><path
               style="fill:none;stroke:#000000;stroke-width:1.77165353;stroke-linecap:square;stroke-linejoin:bevel;stroke-miterlimit:4;stroke-opacity:1;stroke-dasharray:none;stroke-dashoffset:0;display:inline"
               d="m 3035.1512,1272.1928 81.3412,-46.963"
               id="use6139-1"
               inkscape:connector-curvature="0"
               sodipodi:nodetypes="cc" /><path
               style="fill:none;stroke:#000000;stroke-width:1.77165353;stroke-linecap:square;stroke-linejoin:bevel;stroke-miterlimit:4;stroke-opacity:1;stroke-dasharray:none;stroke-dashoffset:0;display:inline"
               d="m 3035.1512,990.41482 -81.3413,-46.963"
               id="use6153-4"
               inkscape:connector-curvature="0"
               sodipodi:nodetypes="cc" /><path
               style="fill:none;stroke:#000000;stroke-width:1.77165353;stroke-linecap:square;stroke-linejoin:bevel;stroke-miterlimit:4;stroke-opacity:1;stroke-dasharray:none;stroke-dashoffset:0;display:inline"
               d="m 3116.4924,1131.3038 -81.3412,-46.963 0,-93.92598 81.3412,-46.963"
               id="use6155-9"
               inkscape:connector-curvature="0"
               sodipodi:nodetypes="cccc" /><path
               style="fill:none;stroke:#000000;stroke-width:1.77165353;stroke-linecap:square;stroke-linejoin:bevel;stroke-miterlimit:4;stroke-opacity:1;stroke-dasharray:none;stroke-dashoffset:0;display:inline"
               d="m 3197.8336,1272.1928 -81.3413,-46.963 0,-93.926 81.3413,-46.963"
               id="use6157-6"
               inkscape:connector-curvature="0"
               sodipodi:nodetypes="cccc" /><path
               style="fill:none;stroke:#000000;stroke-width:1.77165353;stroke-linecap:square;stroke-linejoin:bevel;stroke-miterlimit:4;stroke-opacity:1;stroke-dasharray:none;stroke-dashoffset:0;display:inline"
               d="m 3197.8336,1272.1928 81.3413,-46.963"
               id="use6159-9"
               inkscape:connector-curvature="0"
               sodipodi:nodetypes="cc" /><path
               style="fill:none;stroke:#000000;stroke-width:1.77165353;stroke-linecap:square;stroke-linejoin:bevel;stroke-miterlimit:4;stroke-opacity:1;stroke-dasharray:none;stroke-dashoffset:0;display:inline"
               d="m 3197.8336,990.41482 -81.3413,-46.963"
               id="use6173-8"
               inkscape:connector-curvature="0"
               sodipodi:nodetypes="cc" /><path
               style="fill:none;stroke:#000000;stroke-width:1.77165353;stroke-linecap:square;stroke-linejoin:bevel;stroke-miterlimit:4;stroke-opacity:1;stroke-dasharray:none;stroke-dashoffset:0;display:inline"
               d="m 3279.1749,1131.3038 -81.3413,-46.963 0,-93.92598"
               id="use6175-8"
               inkscape:connector-curvature="0"
               sodipodi:nodetypes="ccc" /><path
               style="fill:none;stroke:#000000;stroke-width:1.77165353;stroke-linecap:square;stroke-linejoin:bevel;stroke-miterlimit:4;stroke-opacity:1;stroke-dasharray:none;stroke-dashoffset:0;display:inline"
               d="m 3279.1749,1225.2298 0,-93.926"
               id="use6177-6"
               inkscape:connector-curvature="0"
               sodipodi:nodetypes="cc" /></g><rect
             y="1116.6659"
             x="2038.5022"
             height="152.73506"
             width="287.08536"
             id="rect6587"
             style="fill:#ffffff;fill-opacity:1;fill-rule:evenodd;stroke:none;display:inline" /><text
             sodipodi:linespacing="125%"
             id="text6443"
             y="1248.6334"
             x="2040.2461"
             style="font-size:144px;font-style:normal;font-variant:normal;font-weight:500;font-stretch:normal;text-align:start;line-height:125%;letter-spacing:0px;word-spacing:0px;writing-mode:lr-tb;text-anchor:start;fill:#000000;fill-opacity:1;stroke:none;font-family:Mathematica6Mono;-inkscape-font-specification:Mathematica6Mono Medium"
             xml:space="preserve"><tspan
               style="font-size:200px"
               y="1248.6334"
               x="2040.2461"
               id="tspan6445"
               sodipodi:role="line">Hive</tspan></text>
</g></g></g></g>
  <path xmlns="http://www.w3.org/2000/svg" xmlns:inkscape="http://www.inkscape.org/namespaces/inkscape" inkscape:connector-curvature="0" id="path6589" d="m 60, 80 c -5.07458,-2.50027 -8.00444,-7.89948 -10.27871,-18.94192 l -0.55582,-2.6986 -2.6298,3.14808 c -5.82869,6.97734 -12.74602,13.53809 -13.87653,13.16124 -2.30771,-0.76925 -1.9023,-2.59461 0.89784,-4.04265 2.84411,-1.47071 12.56747,-14.77231 16.56644,-22.66291 l 2.12521,-4.19348 -2.23802,0.69253 c -4.84259,1.49842 -9.60542,4.49389 -10.37846,6.52727 -1.19149,3.13391 -10.30345,11.31711 -12.6015,11.31711 -2.93053,0 -2.39896,-1.49204 1.31157,-3.6813 1.80745,-1.06643 5.01369,-4.48063 7.12508,-7.58713 3.25157,-4.78426 4.89013,-6.15597 10.71303,-8.96819 3.78078,-1.82603 6.69664,-3.49767 6.47961,-3.71472 -0.2171,-0.21707 -4.15981,1.22245 -8.76151,3.19895 -7.10623,3.05219 -9.035,3.50207 -12.80102,2.98588 -4.52464,-0.62017 -12.86261,-5.25436 -15.03556,-8.3566 -0.66186,-0.94505 -2.94396,-2.18692 -5.07121,-2.75973 -4.54377,-1.22351 -10.30935,-6.73941 -12.47282,-11.93271 l -1.4993,-3.59905 3.14379,-1.71386 c 4.91864,-2.68148 16.99169,-2.21915 24.41032,0.93475 3.18999,1.35616 9.71496,3.65458 14.49993,5.10757 4.78497,1.453 9.35245,2.86808 10.14993,3.14461 0.79751,0.27655 -1.26874,-1.99243 -4.59165,-5.04217 -4.076,-3.7409 -6.04162,-6.27338 -6.04162,-7.78385 0,-1.26984 -1.4644,-3.70325 -3.38332,-5.6222 -4.40914,-4.4091 -4.3348,-6.0974 0.13485,-3.06418 1.93506,1.31313 4.05843,2.38753 4.71857,2.38753 0.66023,0 1.68981,1.9437 2.288,4.31934 0.82744,3.28612 1.94916,4.90476 4.68916,6.76663 5.26414,3.57712 7.01112,3.28301 6.74877,-1.13622 -0.18117,-3.05092 0.18229,-3.77711 2.44553,-4.88606 1.46209,-0.7164 2.65745,-1.60506 2.65629,-1.97479 0,-0.36973 -3.23028,-3.06475 -7.17589,-5.98889 -3.94563,-2.92416 -6.80501,-5.45071 -6.35425,-5.61454 0.45084,-0.16385 3.89495,1.74703 7.65363,4.24641 9.41055,6.25755 12.97986,6.25755 22.39039,0 3.75865,-2.49938 7.2028,-4.41026 7.65363,-4.24641 0.45077,0.16383 -2.40864,2.69038 -6.35424,5.61454 -3.94563,2.92414 -7.17487,5.61916 -7.17592,5.98889 0,0.36973 1.19422,1.25839 2.65629,1.97479 2.26323,1.10895 2.6267,1.83514 2.44556,4.88606 -0.26234,4.41923 1.4846,4.71334 6.74873,1.13622 2.74001,-1.86187 3.86173,-3.48051 4.6892,-6.76663 0.59816,-2.37564 1.62775,-4.31934 2.28796,-4.31934 0.66015,0 2.78353,-1.0744 4.71858,-2.38753 4.46965,-3.03322 4.54399,-1.34492 0.13484,3.06418 -1.91893,1.91895 -3.38331,4.35236 -3.38331,5.6222 0,1.51047 -1.96562,4.04295 -6.04162,7.78385 -3.3229,3.04974 -5.38914,5.31872 -4.59165,5.04217 0.7975,-0.27653 5.36498,-1.69161 10.14995,-3.14461 4.78498,-1.45299 11.30991,-3.75141 14.4999,-5.10757 7.41865,-3.1539 19.49167,-3.61623 24.41034,-0.93475 l 3.14377,1.71386 -1.49928,3.59905 c -2.16347,5.1933 -7.92905,10.7092 -12.47282,11.93271 -2.12725,0.57281 -4.40933,1.81468 -5.0712,2.75973 -2.17287,3.10224 -10.51092,7.73643 -15.03555,8.3566 -3.76605,0.51619 -5.69482,0.0663 -12.80102,-2.98588 -4.6017,-1.9765 -8.54442,-3.41602 -8.76153,-3.19895 -0.21701,0.21705 2.69881,1.88869 6.47963,3.71472 5.82287,2.81222 7.46146,4.18393 10.71303,8.96819 2.11134,3.1065 5.31759,6.5207 7.12503,7.58713 3.71055,2.18926 4.24211,3.6813 1.3116,3.6813 -2.29806,0 -11.41,-8.1832 -12.60151,-11.31711 -0.77302,-2.03338 -5.53588,-5.02885 -10.37846,-6.52727 l -2.23802,-0.69253 2.1252,4.19348 c 3.99899,7.8906 13.72234,21.1922 16.56647,22.66291 2.80012,1.44804 3.20553,3.27342 0.89783,4.04265 -1.13052,0.37685 -8.04784,-6.1839 -13.87651,-13.16124 l -2.62981,-3.14807 -0.55584,2.69859 c -2.29795,11.1572 -5.24509,16.51755 -10.43598,18.98077 -4.10822,1.9495 -4.21966,1.94897 -8.25422,-0.0388 z m 10.27947,-6.63538 c 2.32589,-1.62913 4.41417,-5.21358 5.37272,-9.22198 0.59768,-2.49898 0.58095,-2.49488 -2.79221,0.68644 -1.86643,1.76025 -4.86114,3.47577 -6.65488,3.81228 -3.95064,0.74115 -9.37343,-1.57533 -12.25069,-5.23314 l -1.98215,-2.51988 0.69418,2.88416 c 1.83907,7.64196 5.43446,11.10078 11.53931,11.10078 2.15584,0 4.88907,-0.6789 6.07372,-1.50866 z m 2.59076,-14.88537 c 0.96336,-1.06457 1.88315,-3.92219 2.10017,-6.52498 0.32219,-3.86442 0.20696,-4.28914 -0.69618,-2.56615 -1.45105,2.76846 -4.91211,4.2186 -10.06847,4.2186 -5.15637,0 -8.61739,-1.45014 -10.06845,-4.2186 -0.90315,-1.72299 -1.01837,-1.29827 -0.69621,2.56615 0.58407,7.00611 2.39077,8.41908 10.76466,8.41908 5.67468,0 7.26496,-0.34764 8.66448,-1.8941 z m -12.67903,-30.26232 c 3.55742,-0.9498 8.75672,-0.29823 13.45042,1.68554 2.77916,1.17459 1.06864,-1.76934 -2.12375,-3.65512 -3.57907,-2.11422 -11.04518,-2.11422 -14.62425,0 -3.1974,1.88875 -4.89255,4.81688 -2.12375,3.66859 0.93641,-0.38836 3.37606,-1.15292 5.42133,-1.69901 z" style="fill:#4d4d4d;display:inline"/>
</svg> 