<?xml version="1.0" encoding="utf-8"?>
<!-- Generator: Adobe Illustrator 27.5.0, SVG Export Plug-In . SVG Version: 6.00 Build 0)  -->
<svg version="1.1" id="Layer_1" xmlns="http://www.w3.org/2000/svg" xmlns:xlink="http://www.w3.org/1999/xlink" x="0px" y="0px"
	 viewBox="0 0 338.802 188.528" style="enable-background:new 0 0 338.802 188.528;" xml:space="preserve">
<g>
	<path style="fill:#FFFFFF;" d="M47.077,121.01c-0.408-2.639-1.013-5.637-1.182-8.589c-0.81,0.011-1.627,0.023-2.458,0.023
		c0.197,2.943,0.624,5.813,1.429,8.51c0.429,1.435,0.918,3.083,1.545,4.72c0.345-0.288,0.843-0.473,1.386-0.618
		C47.53,123.711,47.285,122.363,47.077,121.01z"/>
	<path style="fill:#5E2C00;" d="M55.856,63.786c-0.747,0-1.459-0.424-1.79-1.142c-0.138-0.296-14.137-29.749-47.597-40.188
		c-1.04-0.325-1.621-1.43-1.298-2.47c0.323-1.041,1.425-1.619,2.471-1.296c35.183,10.979,49.412,41.024,50.001,42.299
		c0.458,0.985,0.027,2.156-0.963,2.613C56.415,63.725,56.133,63.786,55.856,63.786z"/>
	<g>
		<path style="fill:#5E2C00;" d="M67.855,167.575c-1.91-1.933-1.887-5.06,0.05-6.97L78.28,150.38
			c0.12-3.51-1.359-13.05-2.268-18.902c-2.003-12.935-3.07-20.436-1.737-24.206c3.897-11.044,20.586-18.716,23.891-20.141
			c2.43-1.052,5.43,0.147,6.477,2.573c1.078,2.495-0.077,5.403-2.568,6.479c-6.132,2.647-16.571,8.892-18.497,14.339
			c-0.535,1.933,1.364,14.206,2.176,19.449c2.018,13.013,3.092,20.565,1.775,24.407c-0.246,0.72-0.661,1.382-1.201,1.914
			l-11.502,11.334c-0.928,0.915-2.156,1.42-3.463,1.42C70.035,169.046,68.792,168.524,67.855,167.575z"/>
		<path style="fill:#FFFFFF;" d="M99.729,90.754c-6.765,2.917-18.957,9.955-21.734,17.83c-1.067,3.02,0.381,12.381,1.914,22.291
			c1.41,9.099,2.642,17.527,2.233,20.65c-0.058,0.438-0.257,0.84-0.57,1.15l-10.898,10.74c-0.389,0.383-0.393,1.007-0.012,1.392
			c0.186,0.192,0.436,0.297,0.7,0.297c0.15,0,0.443-0.037,0.694-0.285l11.502-11.339c0.108-0.104,0.192-0.235,0.239-0.379
			c1.066-3.11-0.328-12.107-1.941-22.526c-1.925-12.429-2.765-19.139-2.007-21.335c3.192-9.036,20.483-16.599,20.66-16.674
			c0.496-0.217,0.728-0.795,0.513-1.294c-0.154-0.363-0.513-0.598-0.906-0.598C99.983,90.671,99.856,90.698,99.729,90.754z"/>
	</g>
	<g>
		<path style="fill:#5E2C00;" d="M96.892,150.037c-0.832-1.021-1.217-2.304-1.083-3.615c0.136-1.309,0.771-2.49,1.791-3.321
			l6.886-5.611l-1.787-25.045c-0.191-2.677,1.825-5.038,4.498-5.265c16.017-1.359,34.823-3.445,38.135-4.517
			c0.442-0.831,0.701-3.88,0.162-6.723c-0.25-1.292,0.015-2.603,0.755-3.695c0.735-1.093,1.852-1.831,3.142-2.08
			c2.711-0.528,5.272,1.278,5.779,3.901c0.283,1.452,2.511,14.283-5.968,17.674c-4.316,1.729-23.81,3.708-36.325,4.839l1.624,22.764
			c0.117,1.601-0.557,3.163-1.8,4.175l-8.878,7.228c-0.873,0.716-1.978,1.109-3.107,1.109
			C99.225,151.854,97.831,151.192,96.892,150.037z"/>
		<path style="fill:#FFFFFF;" d="M150.142,94.036c-0.347,0.066-0.543,0.29-0.628,0.413c-0.086,0.128-0.219,0.391-0.15,0.747
			c0.018,0.095,1.737,9.414-2.357,11.051c-4.732,1.894-39.128,4.833-39.476,4.862c-0.535,0.045-0.94,0.518-0.9,1.054l1.86,26.071
			c0.046,0.638-0.224,1.264-0.721,1.667l-7.677,6.258c-0.278,0.225-0.343,0.515-0.363,0.666c-0.015,0.15-0.007,0.447,0.219,0.72
			c0.29,0.359,0.745,0.667,1.387,0.143l8.873-7.229c0.25-0.203,0.385-0.514,0.361-0.835l-1.763-24.696
			c-0.078-1.075,0.72-2.009,1.79-2.107c20.016-1.767,34.25-3.584,37.141-4.744c5.631-2.25,3.647-12.812,3.563-13.262
			c-0.092-0.463-0.493-0.8-0.96-0.8L150.142,94.036z"/>
	</g>
	<g>
		<g>
			<path style="fill:#5E2C00;" d="M132.879,116.768c-2.061,0-4.376-0.496-7.072-1.517c-3.358-1.275-5.455-3.262-6.242-5.908
				c-1.343-4.526,1.926-9.068,2.064-9.261l62.943-92.121c0.762-1.699,2.414-2.667,4.571-2.667c3.031,0,6.709,1.883,8.553,4.38
				c1.129,1.526,1.49,3.208,1.017,4.743c-1.279,4.159-5.172,5.264-7.206,5.558c-5.061,9.772-43.176,83.29-46.958,88.652
				C141.723,112.63,138.801,116.768,132.879,116.768z"/>
			<path style="fill:#FFFFFF;" d="M189.143,9.237c-0.844,0-0.951,0.276-0.989,0.38c-0.054,0.143-0.127,0.277-0.212,0.404
				l-63.094,92.337c-0.662,0.924-2.159,3.681-1.498,5.876c0.42,1.397,1.718,2.519,3.855,3.328c2.241,0.85,4.097,1.263,5.673,1.263
				c3.699,0,5.529-2.338,8.448-6.47c3.058-4.332,32.196-60.211,47.178-89.151c0.339-0.655,1.013-1.067,1.752-1.067
				c0.147,0,3.828-0.072,4.686-2.878c0.128-0.414-0.208-0.955-0.419-1.239C193.43,10.537,190.914,9.237,189.143,9.237z"/>
			<path style="fill:#5E2C00;" d="M228.704,117.677c-0.255,0-0.513-0.048-0.752-0.147c-0.49-0.203-0.878-0.594-1.078-1.083
				c-39.903-98.282-39.903-99.141-39.903-99.652c0-0.359,0-1.453,2.507-6.468c0.401-0.807,1.306-1.239,2.18-1.046
				c0.361,0.077,8.822,2.01,10.713,10.709c1.594,7.342,32.476,92.214,32.787,93.068c0.358,0.985-0.116,2.075-1.078,2.488
				l-4.602,1.972C229.231,117.624,228.966,117.677,228.704,117.677z"/>
			<path style="fill:#FFFFFF;" d="M190.973,16.68c2.11,5.887,27.846,69.432,38.801,96.423l1.04-0.447
				c-4.575-12.585-30.757-84.741-32.297-91.829c-0.952-4.38-4.293-6.386-6.25-7.206C191.685,14.862,191.165,16.071,190.973,16.68z"
				/>
		</g>
		<path style="fill:#5E2C00;" d="M264.07,130.551c-1.576,0-3.49-0.898-6.139-2.138c-3.045-1.425-6.834-3.196-10.819-3.863
			c-0.933-0.154-1.896-0.305-2.869-0.455c-8.215-1.285-16.706-2.612-17.492-8.111c-0.327-2.278-0.019-3.923,0.937-5.025
			c0.673-0.775,1.617-1.2,2.661-1.2c0.396,0,0.697,0.062,0.805,0.089c0.304,0.075,0.585,0.224,0.819,0.43
			c0.047,0.039,5.077,4.315,14.585,6.462c7.74,1.749,20.152,7.66,20.255,11.372c0.031,1.07-0.673,1.998-1.749,2.305
			C264.756,130.507,264.421,130.551,264.07,130.551z"/>
		<polygon style="fill:#5E2C00;" points="264.07,126.607 264.07,128.579 264.078,126.607 		"/>
		<path style="fill:#FFFFFF;" d="M230.571,114.169c-0.011,0.292,0.005,0.7,0.085,1.259c0.331,2.334,7.023,3.619,12.369,4.482
			C236.66,118.103,232.485,115.529,230.571,114.169z"/>
	</g>
	<path style="fill:#5E2C00;" d="M274.399,85.051C273.986,85.102,274.152,85.106,274.399,85.051L274.399,85.051z"/>
	<path style="fill:#5E2C00;" d="M324.071,27.956c-15.343-4.618-34.774,0.015-50.123,2.441
		c-37.076,5.861-74.249,11.107-111.429,16.069c-10.236-6.256-25.517-8.143-34.96-8.558c-10.543-0.462-21.407,0.703-31.751,2.615
		c-5.825,1.074-12.241,1.867-17.598,4.575c-1.418-0.05-2.834-0.004-4.235,0.126c-7.341,0.117-14.708,3.189-21.323,10.284
		c-6.932,7.438-9.138,18.644-10.757,28.286c-2.348,14.012-3.407,31.452,1.953,44.887c9.85,24.694,44.193-5.407,53.488-15.281
		c1.271-1.347,2.451-2.819,3.582-4.34c0.461,0.352,1.031,0.788,1.821,1.398c1.09,0.838,3.82,2.027,4.678,2.461
		c5.981,3.02,12.858,5.006,19.463,6.041c9.853,1.542,25.993,3.909,35.138-1.481c1.005-0.592,1.914-1.263,2.78-1.969
		c5.158,2.243,11.955,1.174,17.416,1.363c5.416,0.187,9.989-0.762,14.27-4.12c1.113-0.87,2.042-1.964,2.854-3.173
		c6.219,1.336,13.622,0.338,18.666-3.565c0.773-0.599,1.477-1.305,2.129-2.077c2.275,1.317,5.479,0.216,8.072-0.071
		c4.833-0.535,8.75-1.765,12.772-4.479c1.352-0.91,3.135-2.393,4.883-4.173c10.481,1.247,21.608-2.993,28.566-10.766
		c0.728,0.343,0.3,0.529-0.03,0.604c0.284-0.034,0.842-0.088,1.879-0.159c1.036-0.072,2.492-0.495,3.458-0.838
		c2.823-0.994,5.437-2.177,7.955-3.79c4.61-2.955,7.498-6.344,10.716-10.309c12.324-5.441,23.545-12.831,31.963-23.642
		C336.863,37.977,333.464,30.782,324.071,27.956z"/>
	<g>
		<path style="fill:#FFFFFF;" d="M91.747,43.443c7.756-1.514,15.716-2.087,23.6-2.355c15.911-0.541,30.96,1.958,45.001,9.714
			c17.737,9.801,2.688,32.068-7.822,41.76c-11.706,10.798-30.969,9.515-45.705,6.492c6.47-14.433,6.608-31.782-5.091-42.872
			c-4.991-6.386-13.17-10.219-21.604-10.976C83.899,44.263,87.908,44.196,91.747,43.443z"/>
		<path style="fill:#FFFFFF;" d="M91.747,43.443c7.756-1.514,15.716-2.087,23.6-2.355c15.911-0.541,30.96,1.958,45.001,9.714
			c17.737,9.801,2.688,32.068-7.822,41.76c-11.706,10.798-30.969,9.515-45.705,6.492c6.47-14.433,6.608-31.782-5.091-42.872
			c-4.991-6.386-13.17-10.219-21.604-10.976C83.899,44.263,87.908,44.196,91.747,43.443z"/>
		<path style="fill:#FFFFFF;" d="M43.715,97.841c9.257,0.223,20.701,3.261,25.183,11.972c1.103,2.138,1.584,4.646,1.714,7.163
			c-6.973-6.739-18.198-7.517-27.202-5.07C43.14,107.253,43.418,102.437,43.715,97.841z"/>
		<path style="fill:#FFFFFF;" d="M68.56,131.788c-0.13,0.091-0.419,0.468-0.354,0.668c-4.667,2.014-9.815,3.172-14.606,1.675
			c-3.492-1.092-5.564-4.432-6.97-7.912c3.223-0.711,7.417,0.276,10.471,0.734c2.653,0.399,5.139,0.531,7.736,1.346
			c1.621,0.508,3.011,1.64,4.42,2.593C69.065,131.271,68.846,131.594,68.56,131.788z"/>
		<path style="fill:#FFFFFF;" d="M56.506,125.306c-2.109-0.278-8.101-1.294-10.096,0.369c-0.627-1.638-1.116-3.286-1.545-4.72
			c-0.805-2.697-1.232-5.567-1.429-8.51c5.476-0.006,10.441-0.428,16.02,1.135c4.402,1.232,7.533,2.481,11.191,4.918
			c-0.008,1.32-0.089,2.625-0.24,3.857c-0.18,1.5-0.111,4.822-0.674,7.156C65.742,126.395,61.683,125.987,56.506,125.306z"/>
		<path style="fill:#FFFFFF;" d="M100.688,104.923c-5.51,10.197-16.444,18.328-26.137,24.209c-1.367,0.83-2.845,1.66-4.391,2.42
			c0.052-0.072,0.099-0.165,0.147-0.242c0.388-0.166,0.782-0.67,0.501-0.926c1.986-4.407,2.117-14.188,1.793-16.236
			c-2.009-12.701-16.739-20.12-28.836-17.161c0.098-1.465,0.19-2.912,0.258-4.309c0.448-8.709,1.872-17.198,4.699-25.454
			c3.863-11.286,12.758-18.103,23.672-19.397c3.75-0.235,7.524,0.035,10.982,0.585c6.212,1.592,11.391,5.637,16.135,9.969
			C110.169,72.929,109.796,88.075,100.688,104.923z"/>
		<path style="fill:#FFFFFF;" d="M156.784,116.498c-8.472,2.307-19.562,0.22-28.285-0.505c-6.395-0.531-20.922-3.705-26.301-8.677
			c1.455-2.139,2.769-4.41,3.917-6.769c14.266,5.865,32.748,4.283,45.517-3.923c6.065-3.897,14.07-13.13,18.352-22.471
			c0.112,0.111,0.219,0.226,0.335,0.335C172.492,89.767,174.149,111.774,156.784,116.498z"/>
		<path style="fill:#FFFFFF;" d="M194.935,110.988c-3.739,3.889-10.912,2.724-15.738,2.518c-4.075-0.176-8.072,0.159-12.12-0.146
			c8.168-8.818,8.924-23.521,7.152-36.04c8.571,4.819,22.512,6.388,29.826,7.775c-0.671,0.855-1.961,10.53-2.287,11.802
			C200.466,101.904,198.575,107.202,194.935,110.988z"/>
		<path style="fill:#FFFFFF;" d="M218.406,102.485c-4.417,6.065-12.269,3.947-18.345,5.933c1.739-3.041,2.814-6.641,3.716-9.696
			c0.95-3.242,3.157-9.005,2.744-13.197c6.704,1.114,13.429,1.449,20.141,1.241C224.668,92.227,221.837,97.772,218.406,102.485z"/>
		<path style="fill:#FFFFFF;" d="M238.882,98.203c-4.071,2.738-12.343,4.584-17.873,4.61c1.475-2.034,2.65-4.371,3.72-6.455
			c1.656-3.223,4.075-6.072,3.947-9.677c6.971-0.331,13.917-1.25,20.811-2.572C247.022,89.81,244.455,94.452,238.882,98.203z"/>
		<path style="fill:#FFFFFF;" d="M263.242,89.895c-5.236,2.101-10.67,3.052-16.165,4.026c2.846-3.185,5.286-7.044,5.141-10.375
			c1.085-0.227,2.176-0.432,3.261-0.676c7.125-1.61,14.491-3.343,21.805-5.432C273.665,83.031,270.001,87.185,263.242,89.895z"/>
		<path style="fill:#FFFFFF;" d="M291.523,75.571c-4.944,4.132-10.344,6.73-16.502,8.203c1.76-2.09,3.239-4.406,4.317-6.938
			c5.414-1.602,10.778-3.429,15.98-5.564C294.184,72.777,293.044,74.3,291.523,75.571z"/>
		<path style="fill:#FFFFFF;" d="M329.085,43.347c-5.719,12.845-24.134,20.706-36.146,25.708
			c-12.903,5.371-26.082,8.129-39.629,11.195c-14.46,3.269-29.07,4.015-43.761,2.079c-6.978-0.918-13.875-2.691-20.733-4.226
			c-3.835-0.857-10.879-2.404-15.365-5.304c-0.35-1.791-0.731-3.527-1.151-5.141c0.751-3.107,0.951-6.093,0.289-8.73
			c-1.172-4.666-4.141-8.321-8.114-11.179c10.817-0.055,21.857-2.939,32.567-3.828c14.528-1.204,28.897-3.181,43.302-5.4
			c14.359-2.21,28.728-4.471,43.108-6.55C290.526,30.949,337.722,23.95,329.085,43.347z"/>
	</g>
	<path style="fill:#5E2C00;" d="M88.982,82.307c-2.88,8.001-15.208,21.359-21.665,8.941c-2.757-5.303-0.381-13.605,1.193-18.877
		c2.166-7.245,8.896-12.967,16.786-10.894c1.102,0.289,1.918,0.886,2.573,1.64C90.849,69.704,91.581,75.084,88.982,82.307z"/>
	<g>
		<g>
			<path style="fill:#5E2C00;" d="M168.367,117.427c-2.06,0-4.374-0.497-7.07-1.522c-3.357-1.271-5.456-3.258-6.241-5.906
				c-1.344-4.526,1.925-9.069,2.063-9.259l62.943-92.124c0.763-1.699,2.415-2.665,4.571-2.665c3.03,0,6.709,1.883,8.553,4.38
				c1.128,1.524,1.49,3.21,1.016,4.742c-1.278,4.159-5.172,5.265-7.205,5.557c-5.061,9.774-43.176,83.291-46.957,88.656
				C177.214,113.287,174.29,117.427,168.367,117.427z"/>
			<path style="fill:#FFFFFF;" d="M224.633,9.894c-0.843,0-0.952,0.275-0.99,0.38c-0.054,0.142-0.127,0.28-0.212,0.402
				l-63.093,92.34c-0.662,0.923-2.16,3.68-1.498,5.874c0.421,1.4,1.719,2.518,3.856,3.331c2.241,0.849,4.097,1.262,5.672,1.262
				c3.701,0,5.531-2.338,8.45-6.472c3.057-4.331,32.198-60.209,47.177-89.151c0.34-0.655,1.014-1.064,1.752-1.064
				c0.147-0.005,3.828-0.077,4.686-2.881c0.128-0.413-0.206-0.955-0.418-1.24C228.919,11.195,226.405,9.894,224.633,9.894z"/>
			<path style="fill:#5E2C00;" d="M264.193,118.335c-0.254,0-0.512-0.049-0.751-0.149c-0.489-0.201-0.879-0.59-1.078-1.082
				c-39.903-98.281-39.903-99.138-39.903-99.652c0-0.36,0-1.45,2.508-6.468c0.399-0.806,1.304-1.24,2.178-1.045
				c0.361,0.079,8.823,2.012,10.714,10.707c1.595,7.344,32.474,92.213,32.787,93.072c0.359,0.982-0.115,2.072-1.079,2.484
				l-4.602,1.972C264.721,118.281,264.455,118.335,264.193,118.335z"/>
			<path style="fill:#FFFFFF;" d="M226.463,17.337c2.11,5.888,27.845,69.429,38.801,96.422l1.04-0.444
				c-4.575-12.588-30.757-84.743-32.297-91.83c-0.951-4.382-4.294-6.388-6.251-7.206C227.174,15.518,226.654,16.73,226.463,17.337z"
				/>
		</g>
		<path style="fill:#5E2C00;" d="M299.56,131.207c-1.576,0-3.488-0.895-6.139-2.135c-3.045-1.425-6.834-3.2-10.819-3.863
			c-0.933-0.155-1.895-0.306-2.869-0.458c-8.215-1.282-16.706-2.611-17.491-8.11c-0.328-2.279-0.02-3.923,0.935-5.025
			c0.674-0.774,1.617-1.201,2.661-1.201c0.396,0,0.697,0.066,0.805,0.093c0.304,0.076,0.584,0.223,0.82,0.426
			c0.046,0.041,5.074,4.317,14.583,6.462c7.74,1.748,20.152,7.664,20.256,11.371c0.031,1.073-0.674,1.998-1.748,2.307
			C300.245,131.162,299.911,131.207,299.56,131.207z"/>
		<polygon style="fill:#5E2C00;" points="299.56,127.265 299.56,129.235 299.568,127.264 		"/>
		<path style="fill:#FFFFFF;" d="M266.062,114.825c-0.013,0.293,0.003,0.701,0.084,1.259c0.332,2.336,7.023,3.622,12.369,4.483
			C272.149,118.759,267.974,116.186,266.062,114.825z"/>
	</g>
	<g>
		<path style="fill:#5E2C00;" d="M143.264,185.7c-1.301,0-2.529-0.505-3.458-1.419l-11.503-11.337
			c-0.54-0.53-0.959-1.192-1.206-1.914c-1.316-3.84-0.239-11.391,1.775-24.405c0.814-5.242,2.715-17.516,2.176-19.451
			c-1.921-5.445-12.365-11.688-18.493-14.337c-2.494-1.079-3.646-3.982-2.571-6.477c1.051-2.43,4.047-3.624,6.477-2.573
			c3.308,1.425,19.997,9.096,23.895,20.136c1.328,3.772,0.261,11.277-1.741,24.209c-0.905,5.852-2.384,15.392-2.264,18.902
			l10.374,10.227c1.934,1.906,1.957,5.033,0.05,6.97C145.841,185.177,144.592,185.7,143.264,185.7z"/>
		<path style="fill:#FFFFFF;" d="M114.514,107.326c-0.393,0-0.752,0.235-0.909,0.596c-0.217,0.497,0.015,1.079,0.516,1.294
			c0.174,0.075,17.467,7.639,20.659,16.674c0.755,2.194-0.084,8.907-2.01,21.335c-1.613,10.419-3.006,19.417-1.94,22.525
			c0.05,0.145,0.131,0.276,0.24,0.38l11.505,11.341c0.251,0.246,0.54,0.282,0.689,0.282c0.266,0,0.516-0.105,0.705-0.294
			c0.382-0.385,0.374-1.012-0.012-1.394l-10.898-10.74c-0.312-0.31-0.517-0.714-0.57-1.149c-0.412-3.124,0.82-11.552,2.229-20.649
			c1.537-9.913,2.984-19.274,1.917-22.293c-2.78-7.875-14.971-14.912-21.734-17.83C114.776,107.353,114.645,107.326,114.514,107.326
			z"/>
	</g>
	<g>
		<path style="fill:#5E2C00;" d="M198.471,165.653c-1.13,0-2.234-0.393-3.112-1.105l-8.872-7.23
			c-1.244-1.016-1.917-2.575-1.802-4.174l1.626-22.765c-12.52-1.131-32.009-3.109-36.331-4.838
			c-8.475-3.391-6.249-16.222-5.965-17.674c0.505-2.622,3.07-4.428,5.777-3.901c1.29,0.248,2.41,0.988,3.146,2.079
			c0.736,1.093,1.005,2.404,0.755,3.695c-0.539,2.845-0.282,5.892,0.158,6.724c3.312,1.072,22.119,3.158,38.14,4.517
			c2.672,0.228,4.69,2.588,4.497,5.264l-1.79,25.047l6.889,5.612c1.022,0.831,1.657,2.01,1.791,3.319
			c0.135,1.309-0.251,2.596-1.082,3.616C201.351,164.992,199.961,165.653,198.471,165.653z"/>
		<path style="fill:#FFFFFF;" d="M148.84,107.817c-0.463,0-0.866,0.336-0.955,0.799c-0.088,0.451-2.068,11.012,3.558,13.263
			c2.892,1.159,17.126,2.977,37.141,4.745c1.076,0.096,1.872,1.032,1.795,2.105l-1.763,24.697c-0.024,0.321,0.112,0.634,0.362,0.836
			l8.872,7.23c0.639,0.523,1.097,0.212,1.386-0.143c0.224-0.278,0.231-0.57,0.215-0.724c-0.015-0.15-0.081-0.439-0.359-0.662
			l-7.681-6.26c-0.498-0.404-0.768-1.027-0.721-1.667l1.864-26.071c0.039-0.535-0.366-1.009-0.901-1.054
			c-0.346-0.029-34.742-2.967-39.479-4.862c-4.089-1.637-2.372-10.956-2.355-11.05c0.068-0.357-0.063-0.621-0.15-0.747
			c-0.085-0.126-0.278-0.349-0.628-0.414L148.84,107.817z"/>
	</g>
	<path style="fill:#5E2C00;" d="M64.726,60.253c-0.005,0-0.012,0-0.02,0c-1.09-0.011-1.964-0.902-1.953-1.991
		C63.004,33.024,83.46,4.823,84.329,3.634c0.648-0.88,1.879-1.067,2.757-0.424c0.879,0.642,1.067,1.877,0.424,2.755
		C87.306,6.246,66.936,34.344,66.696,58.3C66.685,59.382,65.807,60.253,64.726,60.253z"/>
</g>
</svg>
