<?xml version="1.0" encoding="UTF-8"?>
<svg xmlns="http://www.w3.org/2000/svg" xmlns:xlink="http://www.w3.org/1999/xlink" width="3000" height="3000" viewBox="0 0 3000 3000">
<rect x="-300" y="-300" width="3600" height="3600" fill="rgb(100%, 100%, 100%)" fill-opacity="1"/>
<path fill-rule="nonzero" fill="rgb(0%, 0%, 0%)" fill-opacity="1" d="M 1980.761719 642.421875 L 1980.839844 642.46875 L 1980.839844 642.480469 L 1980.828125 642.488281 Z M 1980.578125 642.519531 Z M 1980.660156 642.441406 L 1980.578125 642.519531 L 1980.589844 642.53125 Z M 1737.621094 264.539062 L 1737.488281 264.761719 C 1775.730469 335.910156 1813.25 408.101562 1842.21875 490.820312 C 1874.058594 581.730469 1895.558594 685.320312 1917.03125 788.78125 L 1917.140625 788.871094 L 1917.058594 788.820312 L 1951.820312 850.988281 C 1952.179688 851.648438 1952.050781 852.46875 1951.5 852.980469 C 1951.191406 853.261719 1950.789062 853.410156 1950.390625 853.398438 C 1950.078125 853.398438 1949.769531 853.308594 1949.488281 853.121094 L 1918.808594 832.300781 L 1918.730469 832.269531 L 1918.71875 832.269531 L 1918.578125 832.480469 C 1940.558594 879.289062 1962.078125 926.429688 1969.390625 975.671875 C 1977 1026.898438 1969.199219 1080.320312 1961.441406 1133.441406 L 1961.410156 1133.660156 C 1961.378906 1133.871094 1961.308594 1134.078125 1961.191406 1134.269531 L 1961.179688 1134.28125 C 1956.589844 1141.820312 1951.960938 1149.429688 1943.640625 1159.539062 C 1935.328125 1169.628906 1923.339844 1182.238281 1910.820312 1192.5 C 1899.960938 1201.410156 1888.71875 1208.53125 1877.488281 1215.378906 C 1877.441406 1215.410156 1877.410156 1215.480469 1877.429688 1215.539062 C 1877.441406 1215.609375 1877.5 1215.648438 1877.570312 1215.648438 L 1877.589844 1215.648438 C 1885.820312 1216.359375 1893.839844 1216.949219 1901.101562 1217 C 1905.800781 1217.039062 1910.179688 1216.839844 1914.109375 1216.308594 L 1914.109375 1216.300781 L 1914.128906 1216.300781 C 1914.140625 1216.300781 1914.148438 1216.300781 1914.148438 1216.300781 L 1914.160156 1216.300781 C 1914.179688 1216.289062 1914.171875 1216.289062 1914.21875 1216.289062 L 1914.269531 1216.25 L 1914.230469 1216.289062 C 1919.679688 1215.53125 1924.25 1214.109375 1929.179688 1212.570312 L 1929.25 1212.550781 C 1934.621094 1210.878906 1940.359375 1209.101562 1947.839844 1208.058594 C 1955.441406 1207 1964.828125 1206.710938 1975.019531 1206.769531 C 1983.300781 1206.828125 1992.078125 1207.121094 2000.890625 1207.429688 L 2001.039062 1207.289062 L 2001.039062 1207.25 C 1996.070312 1189.839844 1991.308594 1171.960938 1992.648438 1147.871094 C 1993.058594 1140.480469 1994.050781 1132.519531 1995.191406 1123.28125 L 1995.191406 1123.230469 C 1997.929688 1101.078125 2001.628906 1071.25 2000.75 1023.191406 C 1999.519531 954.988281 1989.101562 850.101562 1961.019531 740.71875 C 1932.941406 631.328125 1887.191406 517.421875 1844.628906 434.070312 C 1807.289062 360.960938 1772.390625 311.371094 1737.75 264.601562 L 1737.640625 264.539062 Z M 1289.078125 261.488281 L 1288.941406 261.558594 C 1253.679688 307.859375 1218.109375 356.988281 1179.789062 429.609375 C 1136.109375 512.378906 1088.839844 625.660156 1059.289062 734.671875 C 1029.75 843.671875 1017.929688 948.410156 1015.78125 1016.589844 C 1014.269531 1064.648438 1017.558594 1094.53125 1020 1116.710938 L 1020 1116.761719 C 1021.019531 1126.011719 1021.898438 1133.980469 1022.210938 1141.371094 C 1023.230469 1165.480469 1018.230469 1183.28125 1013.039062 1200.621094 L 1013.191406 1200.839844 L 1013.199219 1200.839844 C 1022.011719 1200.648438 1030.800781 1200.480469 1039.070312 1200.53125 C 1049.269531 1200.601562 1058.648438 1201.019531 1066.230469 1202.179688 C 1073.710938 1203.320312 1079.441406 1205.179688 1084.789062 1206.929688 L 1084.820312 1206.941406 C 1089.730469 1208.539062 1094.289062 1210.019531 1099.730469 1210.859375 L 1099.738281 1210.859375 C 1099.800781 1210.859375 1099.78125 1210.859375 1099.789062 1210.859375 L 1099.789062 1210.871094 C 1099.800781 1210.871094 1099.820312 1210.871094 1099.851562 1210.871094 L 1099.859375 1210.871094 C 1103.769531 1211.460938 1108.148438 1211.71875 1112.851562 1211.75 C 1120.121094 1211.800781 1128.148438 1211.308594 1136.410156 1210.710938 L 1136.441406 1210.710938 C 1136.511719 1210.691406 1136.558594 1210.640625 1136.570312 1210.570312 C 1136.578125 1210.5 1136.550781 1210.429688 1136.488281 1210.398438 C 1125.371094 1203.398438 1114.21875 1196.121094 1103.480469 1187.078125 C 1091.089844 1176.648438 1079.269531 1163.878906 1071.109375 1153.679688 C 1062.921875 1143.460938 1058.390625 1135.789062 1053.898438 1128.191406 L 1053.890625 1128.179688 C 1053.789062 1127.988281 1053.710938 1127.789062 1053.691406 1127.570312 L 1053.660156 1127.359375 C 1046.609375 1074.128906 1039.539062 1020.621094 1047.820312 969.5 C 1055.789062 920.359375 1077.949219 873.519531 1100.550781 827 L 1100.441406 826.761719 L 1100.300781 826.78125 L 1069.320312 847.210938 C 1069.058594 847.390625 1068.75 847.46875 1068.441406 847.46875 C 1068.039062 847.46875 1067.660156 847.320312 1067.351562 847.039062 C 1066.808594 846.53125 1066.691406 845.71875 1067.070312 845.078125 L 1102.660156 783.359375 L 1102.578125 783.429688 L 1102.691406 783.308594 L 1102.808594 782.75 C 1125.628906 679.78125 1148.488281 576.710938 1181.480469 486.398438 C 1211.558594 404.070312 1250.039062 332.378906 1289.238281 261.75 L 1289.261719 261.671875 L 1289.261719 261.660156 L 1289.089844 261.488281 Z M 1450.558594 1148.71875 C 1435.660156 1149.160156 1424.210938 1156.890625 1416.191406 1171.941406 C 1412.671875 1177.730469 1409.851562 1187.089844 1407.738281 1200.019531 C 1405.679688 1211.308594 1405.328125 1222.109375 1406.691406 1232.421875 C 1410.46875 1251.808594 1414.480469 1265.980469 1418.710938 1274.929688 C 1421.578125 1281.011719 1425.929688 1286.039062 1431.738281 1290.019531 C 1431.839844 1290.070312 1431.929688 1290.101562 1432 1290.109375 C 1432.199219 1290.109375 1432.339844 1289.910156 1432.398438 1289.539062 C 1431.429688 1282.761719 1431.230469 1278.261719 1431.78125 1276.039062 C 1432.449219 1271.808594 1433.699219 1268.859375 1435.519531 1267.171875 C 1436.730469 1266.179688 1438.019531 1265.691406 1439.390625 1265.699219 C 1439.941406 1265.710938 1440.5 1265.789062 1441.078125 1265.960938 C 1441.109375 1265.941406 1441.140625 1265.941406 1441.191406 1265.941406 C 1441.988281 1265.941406 1445.769531 1267.808594 1452.53125 1271.511719 C 1453.371094 1271.859375 1454.148438 1272.039062 1454.859375 1272.039062 C 1455.289062 1272.050781 1455.691406 1271.988281 1456.070312 1271.871094 C 1457.078125 1271.5 1457.800781 1270.710938 1458.230469 1269.511719 C 1459.210938 1261.980469 1460.121094 1258.101562 1460.949219 1257.859375 C 1461.589844 1256.800781 1462.660156 1256.28125 1464.148438 1256.289062 C 1465.171875 1256.289062 1466.390625 1256.550781 1467.808594 1257.058594 L 1470.789062 1259.019531 C 1474.039062 1246.671875 1473.671875 1234.269531 1469.679688 1221.828125 C 1469.378906 1224.25 1468.011719 1225.449219 1465.578125 1225.429688 C 1464.980469 1225.429688 1464.320312 1225.351562 1463.589844 1225.199219 C 1460.121094 1224.558594 1456.46875 1222.328125 1452.648438 1218.539062 C 1445.25 1211.039062 1440.070312 1201.078125 1437.101562 1188.660156 C 1435.660156 1180.019531 1436.179688 1171.890625 1438.640625 1164.261719 C 1439.78125 1160.949219 1441.28125 1158.078125 1443.148438 1155.648438 C 1444.070312 1154.171875 1446.480469 1152.089844 1450.371094 1149.421875 C 1450.699219 1149.089844 1450.769531 1148.859375 1450.570312 1148.71875 Z M 1564.261719 1149.480469 C 1564.058594 1149.609375 1564.121094 1149.851562 1564.449219 1150.191406 C 1568.300781 1152.910156 1570.679688 1155.019531 1571.578125 1156.511719 C 1573.421875 1158.96875 1574.890625 1161.859375 1575.980469 1165.179688 C 1578.339844 1172.839844 1578.75 1180.980469 1577.191406 1189.601562 C 1574.058594 1201.980469 1568.738281 1211.859375 1561.238281 1219.261719 C 1557.378906 1223.011719 1553.691406 1225.179688 1550.210938 1225.78125 C 1549.480469 1225.921875 1548.820312 1225.988281 1548.21875 1225.980469 C 1545.789062 1225.96875 1544.441406 1224.75 1544.171875 1222.328125 C 1540.019531 1234.71875 1539.480469 1247.109375 1542.570312 1259.5 L 1545.570312 1257.578125 C 1546.988281 1257.089844 1548.21875 1256.851562 1549.238281 1256.859375 C 1550.730469 1256.871094 1551.789062 1257.410156 1552.410156 1258.46875 C 1553.25 1258.71875 1554.101562 1262.621094 1554.96875 1270.160156 C 1555.390625 1271.371094 1556.109375 1272.160156 1557.109375 1272.539062 C 1557.488281 1272.671875 1557.890625 1272.730469 1558.320312 1272.730469 C 1559.03125 1272.738281 1559.808594 1272.570312 1560.648438 1272.230469 C 1567.460938 1268.621094 1571.261719 1266.808594 1572.058594 1266.820312 C 1572.109375 1266.820312 1572.140625 1266.820312 1572.171875 1266.839844 C 1572.75 1266.679688 1573.320312 1266.601562 1573.871094 1266.609375 C 1575.238281 1266.609375 1576.519531 1267.121094 1577.710938 1268.121094 C 1579.519531 1269.828125 1580.730469 1272.800781 1581.339844 1277.039062 C 1581.859375 1279.269531 1581.601562 1283.769531 1580.539062 1290.53125 C 1580.589844 1290.910156 1580.730469 1291.101562 1580.929688 1291.101562 C 1581.011719 1291.101562 1581.101562 1291.070312 1581.191406 1291.019531 C 1587.058594 1287.109375 1591.46875 1282.140625 1594.421875 1276.109375 C 1598.769531 1267.21875 1602.96875 1253.101562 1607.019531 1233.761719 C 1608.511719 1223.46875 1608.308594 1212.660156 1606.390625 1201.351562 C 1604.460938 1188.390625 1601.769531 1179 1598.320312 1173.160156 C 1590.511719 1158.011719 1579.160156 1150.121094 1564.269531 1149.480469 Z M 1095.730469 1167.390625 C 1095.480469 1167.390625 1095.390625 1167.5 1095.429688 1167.738281 C 1111.558594 1184.019531 1133.050781 1197.859375 1159.890625 1209.261719 C 1177.398438 1217.039062 1191.558594 1222.609375 1202.359375 1225.96875 C 1268.441406 1243.371094 1300.109375 1252.339844 1297.328125 1252.910156 C 1302.398438 1254.800781 1309.21875 1257.960938 1317.789062 1262.398438 C 1352.839844 1284.5 1371.828125 1295.558594 1374.75 1295.578125 C 1374.789062 1295.578125 1374.828125 1295.578125 1374.871094 1295.570312 C 1392.5 1303.921875 1407.648438 1308.769531 1420.320312 1310.128906 L 1419.210938 1306.96875 C 1408.941406 1297.488281 1402.058594 1289.828125 1398.550781 1283.980469 L 1382.019531 1249.261719 C 1367.191406 1236.390625 1351.980469 1226.660156 1336.359375 1220.070312 C 1318.269531 1212.46875 1298.660156 1206.730469 1277.53125 1202.859375 C 1274.238281 1201.328125 1240.078125 1196.78125 1175.039062 1189.210938 C 1169.390625 1188.601562 1155.710938 1186.351562 1134.011719 1182.460938 C 1129.238281 1181.480469 1124.230469 1180 1118.988281 1178.019531 C 1112.230469 1175.441406 1104.699219 1171.941406 1096.378906 1167.539062 C 1096.101562 1167.441406 1095.890625 1167.390625 1095.730469 1167.390625 Z M 1918.808594 1172.898438 C 1918.660156 1172.898438 1918.441406 1172.949219 1918.160156 1173.039062 C 1909.789062 1177.339844 1902.199219 1180.730469 1895.421875 1183.210938 C 1890.140625 1185.128906 1885.121094 1186.550781 1880.339844 1187.460938 C 1858.578125 1191.058594 1844.878906 1193.121094 1839.21875 1193.660156 C 1774.089844 1200.359375 1739.859375 1204.449219 1736.558594 1205.941406 C 1715.378906 1209.519531 1695.691406 1215 1677.5 1222.351562 C 1661.800781 1228.730469 1646.449219 1238.261719 1631.449219 1250.929688 L 1614.460938 1285.429688 C 1610.878906 1291.230469 1603.890625 1298.800781 1593.488281 1308.140625 L 1592.339844 1311.289062 C 1605.03125 1310.101562 1620.25 1305.441406 1637.980469 1297.339844 C 1638.019531 1297.339844 1638.058594 1297.339844 1638.109375 1297.339844 C 1641.019531 1297.359375 1660.148438 1286.558594 1695.5 1264.929688 C 1704.128906 1260.609375 1710.988281 1257.53125 1716.089844 1255.710938 C 1713.320312 1255.109375 1745.101562 1246.558594 1811.410156 1230.050781 C 1822.25 1226.828125 1836.480469 1221.449219 1854.101562 1213.910156 C 1881.089844 1202.871094 1902.761719 1189.320312 1919.109375 1173.25 C 1919.160156 1173.019531 1919.058594 1172.910156 1918.808594 1172.898438 Z M 1040.96875 636.128906 L 1040.941406 636.148438 C 1017.269531 675.921875 993.761719 717.359375 971.710938 776.710938 C 947.332031 842.320312 924.738281 929.851562 912.472656 1010.898438 C 900.207031 1091.941406 898.269531 1166.519531 899.425781 1219.058594 C 900.550781 1270.179688 904.605469 1300.421875 908.742188 1330.128906 L 908.804688 1330.121094 L 908.808594 1330.121094 C 913.789062 1322.070312 919.097656 1314.050781 925.246094 1312.960938 C 925.769531 1312.859375 926.292969 1312.820312 926.824219 1312.820312 C 932.972656 1312.871094 939.527344 1319.128906 945.644531 1325.019531 L 945.664062 1325.03125 L 945.667969 1325.03125 L 945.683594 1325.019531 C 953.042969 1321.398438 960.574219 1317.789062 970.085938 1317.851562 C 973.589844 1317.871094 977.363281 1318.398438 981.492188 1319.601562 C 988.183594 1321.550781 995.8125 1325.289062 1004 1329.308594 L 1004.050781 1329.328125 C 1013.878906 1334.148438 1024.558594 1339.390625 1035.679688 1342.621094 L 1035.679688 1342.628906 L 1035.691406 1342.628906 C 1036.769531 1342.941406 1037.859375 1343.238281 1038.941406 1343.519531 C 1047.539062 1345.679688 1056.378906 1346.539062 1065.378906 1346.601562 C 1078.070312 1346.679688 1091.089844 1345.191406 1104.191406 1343.558594 L 1104.199219 1343.558594 L 1104.210938 1343.5 C 1088.46875 1336.898438 1072.800781 1330.25 1060.921875 1322.949219 C 1048.710938 1315.441406 1040.539062 1307.25 1032.46875 1299.121094 L 1032.460938 1299.160156 L 1032.449219 1299.109375 C 1011.320312 1298.121094 989.941406 1297.070312 972.355469 1286.480469 C 954.738281 1275.859375 941.023438 1255.699219 927.449219 1235.75 L 927.371094 1235.628906 C 927.28125 1235.5 927.230469 1235.351562 927.222656 1235.191406 L 927.222656 1235.171875 C 924.84375 1184.761719 922.460938 1134.308594 926.230469 1074.121094 C 929.996094 1013.941406 939.910156 944.03125 951.792969 896.960938 C 963.105469 852.140625 976.207031 828.03125 989.371094 804.980469 L 989.351562 804.929688 L 989.316406 804.929688 L 975.898438 814.570312 L 975.894531 814.578125 C 975.746094 814.679688 975.574219 814.730469 975.398438 814.730469 C 975.230469 814.730469 975.066406 814.679688 974.921875 814.589844 C 974.625 814.378906 974.488281 814.019531 974.582031 813.671875 C 980.535156 791.019531 986.5 768.351562 998.5625 736.519531 C 1009.320312 708.160156 1024.898438 672.558594 1041.011719 636.179688 L 1040.980469 636.128906 Z M 1980.710938 642.378906 L 1980.660156 642.441406 L 1980.691406 642.410156 L 1980.609375 642.550781 L 1980.589844 642.53125 L 1980.570312 642.570312 L 1980.570312 642.578125 L 1980.578125 642.578125 L 1980.578125 642.589844 L 1980.601562 642.628906 C 1996.199219 679.191406 2011.289062 714.941406 2021.640625 743.410156 C 2033.269531 775.390625 2038.929688 798.140625 2044.589844 820.859375 C 2044.660156 821.160156 2044.539062 821.480469 2044.28125 821.660156 C 2044.148438 821.738281 2044 821.78125 2043.859375 821.78125 C 2043.710938 821.78125 2043.558594 821.730469 2043.429688 821.640625 L 2030.160156 811.828125 L 2030.070312 811.808594 L 2030.058594 811.808594 L 2029.929688 812.019531 C 2042.78125 835.230469 2055.550781 859.5 2066.25 904.449219 C 2077.5 951.671875 2086.480469 1021.699219 2089.441406 1081.921875 C 2092.398438 1142.140625 2089.339844 1192.558594 2086.289062 1242.929688 L 2086.289062 1242.949219 C 2086.28125 1243.089844 2086.230469 1243.21875 2086.148438 1243.328125 L 2086.070312 1243.441406 L 2085.988281 1243.558594 C 2072.179688 1263.300781 2058.21875 1283.191406 2040.53125 1293.539062 C 2022.828125 1303.878906 2001.460938 1304.640625 1980.308594 1305.359375 C 1980.238281 1305.359375 1980.191406 1305.398438 1980.179688 1305.460938 L 1980.160156 1305.460938 C 1972 1313.460938 1963.738281 1321.5 1951.480469 1328.820312 C 1939.519531 1335.960938 1923.761719 1342.398438 1907.941406 1348.789062 C 1907.878906 1348.808594 1907.839844 1348.871094 1907.859375 1348.941406 C 1907.871094 1349.011719 1907.929688 1349.058594 1907.988281 1349.058594 L 1908 1349.058594 C 1921.070312 1350.859375 1934.058594 1352.53125 1946.761719 1352.609375 C 1955.769531 1352.671875 1964.621094 1351.929688 1973.261719 1349.878906 C 1974.359375 1349.621094 1975.441406 1349.339844 1976.539062 1349.03125 C 1987.71875 1345.941406 1998.480469 1340.839844 2008.359375 1336.160156 L 2008.421875 1336.128906 L 2008.46875 1336.109375 C 2016.691406 1332.210938 2024.339844 1328.589844 2031.03125 1326.730469 L 2031.039062 1326.738281 C 2035.171875 1325.589844 2038.941406 1325.121094 2042.429688 1325.140625 C 2051.910156 1325.210938 2059.378906 1328.898438 2066.691406 1332.628906 L 2066.890625 1332.53125 L 2066.851562 1332.609375 C 2073.058594 1326.789062 2079.660156 1320.648438 2085.761719 1320.691406 C 2086.28125 1320.699219 2086.800781 1320.75 2087.308594 1320.839844 C 2093.390625 1322.011719 2098.570312 1330.058594 2103.449219 1338.199219 L 2103.71875 1338.128906 L 2103.71875 1338.121094 L 2103.71875 1338.128906 C 2108.25 1308.480469 2112.710938 1278.300781 2114.519531 1227.191406 C 2116.378906 1174.671875 2115.441406 1100.078125 2104.261719 1018.871094 C 2093.078125 937.648438 2071.660156 849.820312 2048.160156 783.878906 C 2026.910156 724.261719 2003.96875 682.519531 1980.851562 642.460938 L 1980.738281 642.398438 L 1980.71875 642.378906 Z M 1513.808594 1350.289062 L 1513.789062 1350.300781 C 1513.789062 1350.289062 1513.789062 1350.289062 1513.800781 1350.289062 Z M 1047.269531 1301.140625 C 1044.410156 1301.929688 1048.109375 1306.140625 1058.359375 1313.761719 C 1095.261719 1334.730469 1130.25 1347.621094 1163.328125 1352.449219 C 1176.699219 1354.628906 1192.75 1355.789062 1211.46875 1355.910156 C 1212.691406 1355.921875 1213.910156 1355.929688 1215.148438 1355.921875 C 1229.710938 1355.609375 1239.570312 1355.289062 1244.75 1354.980469 C 1256.75 1353.949219 1274.730469 1352.769531 1298.691406 1351.429688 C 1306.160156 1350.96875 1314.5 1350.769531 1323.699219 1350.839844 C 1328.601562 1350.871094 1333.75 1350.980469 1339.140625 1351.148438 C 1361.789062 1352.550781 1383.019531 1357.25 1402.839844 1365.261719 L 1411.128906 1370.691406 C 1409.019531 1339.660156 1389.199219 1320.640625 1351.660156 1313.621094 C 1342.640625 1312.078125 1330.648438 1311.261719 1315.691406 1311.160156 C 1311.53125 1311.128906 1307.140625 1311.160156 1302.519531 1311.238281 C 1265.460938 1313.871094 1240.949219 1315.878906 1229 1317.269531 C 1206.308594 1318.53125 1188.230469 1319.109375 1174.789062 1319.019531 C 1168.5 1318.980469 1163.21875 1318.789062 1158.960938 1318.449219 C 1123.980469 1318.070312 1086.75 1312.300781 1047.269531 1301.140625 Z M 1965.46875 1307.289062 C 1925.851562 1317.910156 1888.550781 1323.179688 1853.570312 1323.101562 C 1849.300781 1323.378906 1844.019531 1323.5 1837.730469 1323.460938 C 1824.289062 1323.371094 1806.230469 1322.539062 1783.558594 1320.980469 C 1771.609375 1319.429688 1747.140625 1317.101562 1710.121094 1313.96875 C 1705.5 1313.820312 1701.109375 1313.738281 1696.941406 1313.710938 C 1681.988281 1313.609375 1669.988281 1314.269531 1660.949219 1315.691406 C 1623.320312 1322.210938 1603.238281 1340.960938 1600.71875 1371.960938 L 1609.078125 1366.640625 C 1629 1358.898438 1650.300781 1354.480469 1672.96875 1353.390625 C 1678.359375 1353.28125 1683.5 1353.25 1688.398438 1353.28125 C 1697.609375 1353.339844 1705.941406 1353.648438 1713.410156 1354.199219 C 1737.351562 1355.859375 1755.308594 1357.289062 1767.300781 1358.480469 C 1772.46875 1358.859375 1782.328125 1359.308594 1796.878906 1359.820312 C 1798.121094 1359.839844 1799.339844 1359.851562 1800.558594 1359.859375 C 1819.28125 1359.980469 1835.339844 1359.039062 1848.75 1357.039062 C 1881.890625 1352.660156 1917.050781 1340.230469 1954.21875 1319.761719 C 1964.570312 1312.28125 1968.328125 1308.121094 1965.488281 1307.289062 Z M 1328.480469 1382.730469 C 1319.730469 1382.671875 1311.949219 1382.890625 1305.140625 1383.398438 C 1283.558594 1385.179688 1269.460938 1386.488281 1262.828125 1387.308594 L 1182.871094 1397.25 C 1177.839844 1397.859375 1170.488281 1398.230469 1160.820312 1398.359375 C 1127.300781 1397.890625 1103.558594 1396.75 1089.609375 1394.949219 C 1081.460938 1394.378906 1067.828125 1390.628906 1048.691406 1383.679688 L 1048.679688 1383.679688 C 1066.941406 1400.089844 1087.058594 1412.378906 1109.019531 1420.550781 C 1137.320312 1429.820312 1158.050781 1434.519531 1171.191406 1434.621094 C 1174.101562 1434.859375 1177.230469 1434.980469 1180.609375 1435 C 1191.941406 1435.078125 1205.929688 1433.96875 1222.558594 1431.691406 L 1282.960938 1420.289062 C 1312.5 1416.019531 1329.179688 1413.46875 1333 1412.621094 C 1337.269531 1412.058594 1341.5 1411.640625 1345.710938 1411.359375 L 1414.28125 1410.160156 C 1399.230469 1394.171875 1374.789062 1385.109375 1340.949219 1382.980469 C 1336.601562 1382.839844 1332.441406 1382.761719 1328.480469 1382.730469 Z M 1683.191406 1385.109375 C 1679.238281 1385.078125 1675.089844 1385.109375 1670.730469 1385.191406 C 1636.871094 1386.859375 1612.308594 1395.589844 1597.050781 1411.378906 L 1665.589844 1413.511719 C 1669.789062 1413.839844 1674.019531 1414.308594 1678.28125 1414.929688 C 1682.089844 1415.828125 1698.730469 1418.609375 1728.21875 1423.269531 L 1788.449219 1435.480469 C 1805.050781 1437.980469 1819.019531 1439.28125 1830.359375 1439.359375 C 1833.730469 1439.371094 1836.871094 1439.289062 1839.769531 1439.101562 C 1852.921875 1439.171875 1873.710938 1434.75 1902.140625 1425.859375 C 1924.210938 1417.988281 1944.480469 1405.96875 1962.949219 1389.808594 L 1962.941406 1389.808594 C 1943.71875 1396.5 1930.039062 1400.070312 1921.890625 1400.519531 C 1907.910156 1402.140625 1884.160156 1402.960938 1850.628906 1402.96875 C 1840.96875 1402.71875 1833.621094 1402.25 1828.609375 1401.570312 L 1748.78125 1390.558594 C 1742.171875 1389.648438 1728.078125 1388.160156 1706.519531 1386.089844 C 1699.730469 1385.488281 1691.949219 1385.160156 1683.191406 1385.109375 Z M 1474.890625 1265.378906 L 1473.121094 1268.609375 C 1469.671875 1273.21875 1467.410156 1275.679688 1466.320312 1275.988281 C 1464.570312 1277.25 1462.660156 1278.25 1460.578125 1279 C 1457.128906 1280.121094 1453.480469 1280.671875 1449.648438 1280.648438 C 1446.128906 1280.621094 1442.460938 1280.121094 1438.621094 1279.128906 L 1438.609375 1279.140625 C 1439.429688 1283.570312 1439.730469 1287.929688 1439.488281 1292.199219 L 1438.738281 1298.550781 C 1437.96875 1302.738281 1436.671875 1306.851562 1434.839844 1310.878906 C 1431.171875 1318.941406 1425.359375 1326.660156 1417.429688 1334.058594 C 1420 1337.539062 1421.960938 1341.019531 1423.28125 1344.488281 L 1424.800781 1349.699219 C 1425.5 1353.171875 1425.578125 1356.640625 1425.03125 1360.109375 C 1423.929688 1367.050781 1420.320312 1373.96875 1414.21875 1380.890625 C 1420.109375 1384.371094 1423.578125 1387.089844 1424.628906 1389.058594 C 1426.550781 1391.519531 1427.78125 1394.199219 1428.320312 1397.109375 C 1429.210938 1400.210938 1429.21875 1403.460938 1428.359375 1406.859375 C 1428.210938 1409.328125 1425.761719 1413.828125 1421.019531 1420.359375 C 1422.929688 1421.871094 1424.789062 1424.710938 1426.578125 1428.851562 C 1427.390625 1431.269531 1427.671875 1433.800781 1427.410156 1436.449219 C 1427.078125 1441.398438 1425.609375 1446.320312 1423 1451.238281 C 1417.640625 1459.828125 1412.601562 1465.941406 1407.859375 1469.589844 C 1409.601562 1469.910156 1411.339844 1470.070312 1413.070312 1470.078125 C 1418.890625 1470.121094 1424.679688 1468.449219 1430.449219 1465.070312 C 1432.050781 1463.921875 1433.480469 1462.339844 1434.730469 1460.351562 C 1442.519531 1443.890625 1447.601562 1434.75 1449.980469 1432.929688 C 1455.578125 1427.941406 1460.558594 1425.460938 1464.921875 1425.480469 C 1466.429688 1425.5 1467.851562 1425.808594 1469.210938 1426.410156 C 1474.328125 1428.441406 1477.230469 1432.359375 1477.890625 1438.171875 C 1477.980469 1440.160156 1477.769531 1442.308594 1477.261719 1444.609375 C 1474.691406 1452.480469 1472.929688 1458.890625 1471.988281 1463.839844 C 1471.429688 1466.96875 1471.101562 1469.78125 1471 1472.261719 C 1470.660156 1478.199219 1471.589844 1486.789062 1473.769531 1498.039062 C 1474.660156 1487.25 1477.339844 1477.71875 1481.800781 1469.441406 C 1484.03125 1465.300781 1486.710938 1461.46875 1489.839844 1457.960938 C 1497.109375 1450.988281 1502.308594 1446.648438 1505.429688 1444.941406 C 1508.53125 1446.691406 1513.671875 1451.101562 1520.851562 1458.171875 C 1523.929688 1461.71875 1526.558594 1465.578125 1528.730469 1469.75 C 1533.089844 1478.089844 1535.640625 1487.660156 1536.378906 1498.460938 C 1538.710938 1487.238281 1539.75 1478.660156 1539.488281 1472.710938 C 1539.429688 1470.230469 1539.140625 1467.429688 1538.621094 1464.289062 C 1537.738281 1459.328125 1536.070312 1452.898438 1533.609375 1444.988281 C 1533.128906 1442.679688 1532.949219 1440.53125 1533.058594 1438.539062 C 1533.808594 1432.730469 1536.75 1428.859375 1541.898438 1426.898438 C 1543.261719 1426.308594 1544.691406 1426.019531 1546.199219 1426.03125 C 1550.558594 1426.058594 1555.511719 1428.609375 1561.039062 1433.679688 C 1563.398438 1435.53125 1568.359375 1444.730469 1575.921875 1461.289062 C 1577.140625 1463.308594 1578.558594 1464.898438 1580.140625 1466.070312 C 1585.859375 1469.53125 1591.628906 1471.28125 1597.449219 1471.320312 C 1599.179688 1471.328125 1600.921875 1471.191406 1602.660156 1470.890625 C 1597.980469 1467.191406 1593.011719 1461 1587.769531 1452.339844 C 1585.230469 1447.390625 1583.820312 1442.441406 1583.558594 1437.5 C 1583.339844 1434.839844 1583.648438 1432.308594 1584.488281 1429.910156 C 1586.339844 1425.789062 1588.230469 1422.980469 1590.171875 1421.488281 C 1585.519531 1414.890625 1583.128906 1410.371094 1583.011719 1407.898438 C 1582.191406 1404.480469 1582.25 1401.230469 1583.179688 1398.148438 C 1583.761719 1395.25 1585.03125 1392.578125 1586.980469 1390.148438 C 1588.058594 1388.191406 1591.558594 1385.519531 1597.488281 1382.121094 C 1591.480469 1375.121094 1587.96875 1368.140625 1586.960938 1361.191406 C 1586.460938 1357.71875 1586.578125 1354.25 1587.328125 1350.789062 L 1588.921875 1345.601562 C 1590.289062 1342.140625 1592.289062 1338.691406 1594.910156 1335.25 C 1587.078125 1327.738281 1581.378906 1319.941406 1577.820312 1311.839844 C 1576.039062 1307.789062 1574.789062 1303.660156 1574.078125 1299.460938 L 1573.410156 1293.101562 C 1573.230469 1288.820312 1573.589844 1284.46875 1574.480469 1280.050781 L 1574.46875 1280.050781 C 1570.609375 1280.980469 1566.929688 1281.429688 1563.410156 1281.410156 C 1559.570312 1281.378906 1555.941406 1280.789062 1552.511719 1279.621094 C 1550.441406 1278.839844 1548.539062 1277.808594 1546.800781 1276.53125 C 1545.71875 1276.210938 1543.488281 1273.710938 1540.109375 1269.058594 L 1538.378906 1265.808594 C 1535.261719 1269.890625 1533.550781 1274.320312 1533.25 1279.078125 C 1532.941406 1281.070312 1532.988281 1285.148438 1533.378906 1291.308594 C 1535.660156 1306.039062 1536.570312 1315.039062 1536.101562 1318.308594 C 1535.960938 1322.398438 1534.699219 1326.988281 1532.308594 1332.089844 C 1525.160156 1344.550781 1517.101562 1350.980469 1508.128906 1351.378906 C 1507.789062 1351.390625 1507.441406 1351.398438 1507.101562 1351.398438 C 1506.761719 1351.398438 1506.410156 1351.390625 1506.070312 1351.371094 C 1505.710938 1351.378906 1505.359375 1351.390625 1505.019531 1351.390625 C 1502.730469 1351.371094 1500.5 1350.96875 1498.328125 1350.179688 C 1498.328125 1350.179688 1498.320312 1350.179688 1498.320312 1350.179688 L 1498.308594 1350.179688 C 1491.628906 1347.730469 1485.550781 1341.578125 1480.070312 1331.738281 C 1477.75 1326.609375 1476.550781 1322 1476.46875 1317.910156 C 1476.039062 1314.628906 1477.058594 1305.640625 1479.550781 1290.941406 C 1480.019531 1284.789062 1480.121094 1280.71875 1479.839844 1278.71875 C 1479.601562 1273.960938 1477.949219 1269.511719 1474.890625 1265.378906 Z M 1405.980469 1434.160156 C 1383.578125 1434.011719 1355.191406 1441.269531 1320.800781 1455.929688 C 1309.039062 1462.039062 1296.839844 1469.558594 1284.179688 1478.511719 C 1238.578125 1513.910156 1211.710938 1533.789062 1203.558594 1538.121094 C 1184.261719 1549.828125 1166.578125 1558.570312 1150.519531 1564.339844 C 1122.511719 1577.039062 1091.761719 1583.269531 1058.269531 1583.050781 C 1046.910156 1582.96875 1035.230469 1582.148438 1023.25 1580.589844 L 1023.238281 1580.589844 C 1034.671875 1593.949219 1056.058594 1603.910156 1087.398438 1610.460938 C 1094.539062 1611.769531 1101.851562 1612.449219 1109.339844 1612.5 C 1125.980469 1612.609375 1143.5 1609.609375 1161.898438 1603.488281 C 1206.289062 1587.289062 1239.160156 1571.269531 1260.5 1555.441406 C 1293.378906 1532.21875 1328.328125 1502.019531 1365.359375 1464.828125 L 1407.570312 1434.179688 C 1407.039062 1434.171875 1406.519531 1434.160156 1405.980469 1434.160156 Z M 1605.019531 1435.488281 C 1604.480469 1435.488281 1603.960938 1435.488281 1603.429688 1435.488281 L 1645.230469 1466.699219 C 1681.75 1504.390625 1716.300781 1535.058594 1748.859375 1558.710938 C 1769.988281 1574.820312 1802.640625 1591.28125 1846.808594 1608.078125 C 1865.128906 1614.441406 1882.609375 1617.679688 1899.25 1617.789062 C 1906.730469 1617.839844 1914.058594 1617.261719 1921.199219 1616.039062 C 1952.628906 1609.910156 1974.148438 1600.238281 1985.761719 1587.03125 L 1985.75 1587.03125 C 1973.738281 1588.429688 1962.058594 1589.101562 1950.699219 1589.019531 C 1917.21875 1588.800781 1886.550781 1582.148438 1858.710938 1569.078125 C 1842.730469 1563.101562 1825.171875 1554.121094 1806.019531 1542.160156 C 1797.941406 1537.710938 1771.328125 1517.480469 1726.210938 1481.46875 C 1713.679688 1472.351562 1701.570312 1464.660156 1689.898438 1458.410156 C 1655.710938 1443.28125 1627.421875 1435.640625 1605.019531 1435.488281 Z M 1505.261719 1470.480469 L 1502.851562 1473.28125 L 1502.261719 1473.949219 C 1488.589844 1489.980469 1479.5 1507.511719 1474.988281 1526.539062 C 1473.929688 1531.980469 1473.28125 1538.230469 1473.058594 1545.289062 C 1474.921875 1544.410156 1476.609375 1543.980469 1478.140625 1543.988281 C 1482.558594 1544.019531 1485.558594 1547.75 1487.160156 1555.179688 C 1487.550781 1557.558594 1487.539062 1559.929688 1487.109375 1562.289062 C 1487.019531 1564.070312 1485.828125 1567 1483.558594 1571.078125 C 1479.070312 1576.289062 1474.539062 1579.75 1469.941406 1581.460938 C 1467.699219 1582.328125 1465.429688 1582.75 1463.109375 1582.738281 C 1460.03125 1582.710938 1456.871094 1581.921875 1453.628906 1580.351562 C 1449.691406 1575.390625 1447.828125 1571.140625 1448.070312 1567.609375 C 1447.921875 1564.441406 1448.078125 1560.988281 1448.550781 1557.238281 C 1449.570312 1550.46875 1450.640625 1545.320312 1451.730469 1541.78125 C 1451.699219 1540.691406 1451.390625 1540.140625 1450.800781 1540.128906 C 1450.730469 1540.128906 1450.671875 1540.140625 1450.609375 1540.148438 C 1447.339844 1542.871094 1444.769531 1546.640625 1442.871094 1551.441406 C 1441.898438 1553.851562 1441.078125 1556.511719 1440.410156 1559.441406 L 1439.53125 1564.039062 C 1439.011719 1567.230469 1438.648438 1570.679688 1438.429688 1574.398438 C 1439.070312 1585.710938 1441.03125 1594.878906 1444.308594 1601.898438 C 1445.519531 1605.171875 1448.101562 1610.21875 1452.050781 1617.058594 C 1455.941406 1623.808594 1461.320312 1632.511719 1468.179688 1643.140625 C 1468.878906 1644.449219 1471.628906 1650.328125 1476.441406 1660.78125 C 1487.699219 1688.730469 1495.859375 1709.96875 1500.910156 1724.5 L 1500.910156 1724.558594 C 1501.898438 1727.359375 1502.769531 1729.898438 1503.511719 1732.199219 C 1504.28125 1729.910156 1505.179688 1727.359375 1506.191406 1724.558594 L 1507.640625 1473.308594 L 1506.191406 1724.53125 C 1511.449219 1710.070312 1519.898438 1688.949219 1531.53125 1661.148438 C 1536.480469 1650.769531 1539.308594 1644.921875 1540.019531 1643.621094 C 1547.03125 1633.078125 1552.519531 1624.460938 1556.5 1617.75 C 1560.550781 1610.96875 1563.191406 1605.949219 1564.449219 1602.699219 C 1567.820312 1595.730469 1569.898438 1586.589844 1570.691406 1575.289062 C 1570.519531 1571.558594 1570.210938 1568.109375 1569.730469 1564.910156 L 1568.910156 1560.308594 C 1568.28125 1557.359375 1567.5 1554.691406 1566.570312 1552.269531 C 1564.730469 1547.441406 1562.199219 1543.640625 1558.980469 1540.871094 C 1558.910156 1540.859375 1558.851562 1540.859375 1558.789062 1540.859375 C 1558.199219 1540.851562 1557.878906 1541.398438 1557.828125 1542.488281 C 1558.878906 1546.039062 1559.871094 1551.210938 1560.808594 1557.988281 C 1561.21875 1561.75 1561.339844 1565.210938 1561.140625 1568.359375 C 1561.339844 1571.898438 1559.421875 1576.121094 1555.410156 1581.03125 C 1552.160156 1582.558594 1548.988281 1583.308594 1545.910156 1583.289062 C 1543.589844 1583.28125 1541.320312 1582.820312 1539.089844 1581.929688 C 1534.519531 1580.148438 1530.03125 1576.628906 1525.609375 1571.359375 C 1523.390625 1567.25 1522.25 1564.300781 1522.191406 1562.519531 C 1521.789062 1560.160156 1521.800781 1557.789062 1522.230469 1555.410156 C 1523.921875 1548.011719 1526.980469 1544.320312 1531.398438 1544.351562 C 1532.929688 1544.359375 1534.609375 1544.808594 1536.460938 1545.710938 C 1536.328125 1538.648438 1535.769531 1532.390625 1534.78125 1526.941406 C 1530.519531 1507.859375 1521.671875 1490.210938 1508.210938 1473.988281 L 1507.640625 1473.308594 Z M 1446.851562 1476.789062 C 1384.121094 1484.628906 1330.910156 1519.929688 1287.199219 1582.660156 C 1286.820312 1583.199219 1286.75 1583.46875 1287 1583.46875 C 1287.109375 1583.46875 1287.269531 1583.429688 1287.5 1583.328125 C 1295.691406 1578.070312 1302.351562 1574.75 1307.460938 1573.390625 C 1310.988281 1572.410156 1314.058594 1571.921875 1316.660156 1571.941406 C 1318.378906 1571.949219 1319.878906 1572.179688 1321.199219 1572.621094 C 1328.871094 1576.070312 1331.570312 1583.921875 1329.300781 1596.160156 C 1328.808594 1603.949219 1315.808594 1617.210938 1290.28125 1635.941406 C 1285.730469 1641.410156 1280.679688 1649.058594 1275.109375 1658.878906 C 1258.628906 1686.460938 1243.738281 1727.230469 1230.460938 1781.191406 C 1223.621094 1816.78125 1219.941406 1846.230469 1219.410156 1869.550781 C 1234.460938 1822.011719 1257.308594 1781.339844 1287.960938 1747.519531 C 1301.710938 1729.390625 1317.378906 1720.390625 1334.949219 1720.5 C 1340.730469 1720.539062 1346.710938 1721.570312 1352.890625 1723.570312 C 1382.339844 1740.648438 1399.320312 1768.761719 1403.839844 1807.910156 C 1407.058594 1839.25 1396.171875 1869.609375 1371.179688 1899.011719 C 1373.210938 1899.46875 1375.300781 1899.710938 1377.429688 1899.730469 C 1393.738281 1899.839844 1412.839844 1886.671875 1434.699219 1860.230469 C 1457.800781 1826.460938 1469.808594 1790.648438 1470.710938 1752.789062 C 1470.390625 1732.03125 1468.558594 1716.710938 1465.230469 1706.851562 C 1462.109375 1692.949219 1451.730469 1667.179688 1434.070312 1629.550781 C 1430.910156 1620.78125 1428.480469 1611.058594 1426.761719 1600.398438 C 1424 1575.511719 1427.609375 1548.671875 1437.570312 1519.871094 L 1446.859375 1476.789062 Z M 1563.570312 1477.570312 L 1572.28125 1520.769531 C 1581.859375 1549.699219 1585.109375 1576.589844 1582.011719 1601.441406 C 1580.148438 1612.070312 1577.589844 1621.761719 1574.308594 1630.488281 C 1556.148438 1667.878906 1545.421875 1693.5 1542.121094 1707.359375 C 1538.660156 1717.179688 1536.628906 1732.46875 1536.019531 1753.230469 C 1536.429688 1791.101562 1547.949219 1827.070312 1570.589844 1861.140625 C 1592.101562 1887.871094 1611.019531 1901.289062 1627.328125 1901.398438 C 1629.460938 1901.421875 1631.550781 1901.199219 1633.589844 1900.769531 C 1608.988281 1871.039062 1598.511719 1840.53125 1602.160156 1809.238281 C 1607.199219 1770.160156 1624.558594 1742.269531 1654.21875 1725.589844 C 1660.441406 1723.671875 1666.429688 1722.730469 1672.199219 1722.761719 C 1689.78125 1722.878906 1705.320312 1732.089844 1718.828125 1750.398438 C 1749.019531 1784.621094 1771.328125 1825.609375 1785.75 1873.339844 C 1785.519531 1850.019531 1782.230469 1820.519531 1775.871094 1784.839844 C 1763.320312 1730.710938 1748.980469 1689.738281 1732.859375 1661.941406 C 1727.429688 1652.050781 1722.480469 1644.339844 1718.011719 1638.800781 C 1692.730469 1619.730469 1679.910156 1606.300781 1679.53125 1598.5 C 1677.421875 1586.230469 1680.230469 1578.429688 1687.941406 1575.070312 C 1689.261719 1574.648438 1690.769531 1574.441406 1692.480469 1574.460938 C 1695.089844 1574.46875 1698.140625 1575 1701.660156 1576.03125 C 1706.75 1577.460938 1713.359375 1580.859375 1721.488281 1586.230469 C 1721.71875 1586.339844 1721.878906 1586.378906 1721.980469 1586.378906 C 1722.230469 1586.390625 1722.171875 1586.109375 1721.800781 1585.570312 C 1678.941406 1522.261719 1626.199219 1486.25 1563.589844 1477.570312 Z M 1981.789062 2029.5 L 1981.789062 2029.503906 Z M 1981.789062 2029.503906 L 1981.800781 2029.519531 L 1981.800781 2029.503906 Z M 1981.800781 2029.519531 L 1981.78125 2029.539062 L 1981.78125 2029.542969 L 1981.820312 2029.546875 Z M 1007.640625 1382.398438 C 998.660156 1382.339844 990.597656 1382.839844 984.222656 1384.378906 C 977.304688 1386.058594 972.371094 1388.960938 967.820312 1391.648438 L 967.820312 1391.660156 C 967.785156 1391.671875 967.730469 1391.699219 967.730469 1391.699219 L 967.703125 1391.71875 C 964.007812 1393.898438 960.5 1395.960938 956.433594 1396.949219 C 955.777344 1397.109375 955.121094 1397.230469 954.433594 1397.339844 C 953.234375 1397.511719 951.980469 1397.589844 950.679688 1397.578125 C 941.308594 1397.519531 929.554688 1393.019531 917.96875 1388.511719 L 917.96875 1388.5 L 917.964844 1388.5 L 917.914062 1388.539062 L 917.902344 1388.640625 C 907.363281 1489.890625 896.933594 1591 909.042969 1689.921875 C 910.195312 1699.328125 911.546875 1708.710938 913.128906 1718.078125 C 930.558594 1821.511719 975.210938 1922.320312 1021.128906 2023.125 L 1021.199219 2023.113281 L 1021.199219 2023.097656 C 985.566406 1913.351562 950.738281 1804.53125 935.363281 1719.199219 C 932.863281 1705.320312 930.875 1692.070312 929.324219 1679.398438 C 920.914062 1610.679688 925.355469 1559.511719 930.152344 1521.820312 C 935.835938 1477.199219 942.023438 1451.449219 948.207031 1425.71875 L 948.210938 1425.710938 C 948.265625 1425.46875 948.425781 1425.269531 948.644531 1425.160156 C 948.765625 1425.089844 948.902344 1425.058594 949.035156 1425.058594 C 949.144531 1425.070312 949.246094 1425.089844 949.347656 1425.121094 L 949.347656 1425.128906 C 955.476562 1427.589844 961.496094 1430 968.46875 1430.050781 C 972.183594 1430.070312 976.175781 1429.429688 980.59375 1427.761719 C 985.433594 1425.929688 990.796875 1422.878906 996.363281 1419.710938 L 996.410156 1419.691406 C 1002.179688 1416.410156 1008.171875 1413 1013.839844 1410.859375 C 1017.171875 1409.609375 1020.429688 1408.769531 1023.53125 1408.640625 C 1023.839844 1408.628906 1024.148438 1408.628906 1024.460938 1408.628906 C 1032.039062 1408.679688 1038.378906 1413.011719 1045.03125 1417.550781 L 1045.03125 1417.558594 C 1045.089844 1417.589844 1045.210938 1417.671875 1045.210938 1417.671875 C 1049.960938 1420.910156 1054.929688 1424.300781 1060.761719 1426.589844 C 1069.339844 1429.960938 1079.859375 1431 1091.230469 1431.070312 C 1098.191406 1431.121094 1105.488281 1430.808594 1112.851562 1430.441406 L 1112.859375 1430.441406 L 1112.859375 1430.371094 C 1098.640625 1425.550781 1084.390625 1420.601562 1072.410156 1413 C 1060.101562 1405.179688 1050.230469 1394.578125 1040.460938 1384.058594 L 1040.449219 1384.089844 L 1040.449219 1384.039062 C 1029.078125 1383.25 1017.761719 1382.46875 1007.640625 1382.398438 Z M 1982 2029.539062 L 1982.011719 2029.539062 L 1982.019531 2029.558594 L 1982.019531 2029.5625 Z M 2004.019531 1388.980469 C 1993.878906 1388.910156 1982.570312 1389.539062 1971.179688 1390.179688 L 1971.179688 1390.351562 L 1971.160156 1390.351562 L 1971.101562 1390.21875 C 1961.191406 1400.621094 1951.191406 1411.078125 1938.789062 1418.71875 C 1926.730469 1426.160156 1912.421875 1430.910156 1898.128906 1435.539062 L 1898.171875 1435.800781 L 1898.21875 1435.800781 C 1905.558594 1436.261719 1912.820312 1436.671875 1919.789062 1436.71875 C 1931.148438 1436.789062 1941.699219 1435.890625 1950.339844 1432.628906 C 1956.230469 1430.410156 1961.269531 1427.078125 1966.070312 1423.890625 L 1966.210938 1423.800781 L 1966.339844 1423.710938 C 1973.011719 1419.289062 1979.351562 1415.121094 1986.851562 1415.171875 C 1987.148438 1415.171875 1987.460938 1415.179688 1987.769531 1415.191406 C 1990.851562 1415.359375 1994.089844 1416.238281 1997.390625 1417.539062 C 2003.039062 1419.75 2008.96875 1423.230469 2014.699219 1426.589844 L 2014.738281 1426.621094 L 2014.851562 1426.679688 C 2020.328125 1429.890625 2025.628906 1433 2030.421875 1434.871094 C 2034.820312 1436.609375 2038.820312 1437.308594 2042.539062 1437.328125 C 2049.539062 1437.378906 2055.601562 1435.039062 2061.769531 1432.660156 C 2061.859375 1432.628906 2061.949219 1432.609375 2062.039062 1432.609375 C 2062.160156 1432.609375 2062.28125 1432.640625 2062.390625 1432.699219 C 2062.578125 1432.800781 2062.71875 1432.980469 2062.769531 1433.191406 C 2068.609375 1459 2074.449219 1484.839844 2079.539062 1529.53125 C 2083.828125 1567.269531 2087.578125 1618.5 2078.25 1687.078125 C 2076.53125 1699.730469 2074.371094 1712.941406 2071.679688 1726.789062 C 2055.171875 1811.898438 2018.890625 1920.230469 1981.789062 2029.492188 L 1981.800781 2029.503906 L 1981.808594 2029.507812 L 1981.800781 2029.515625 L 1981.828125 2029.550781 L 1982 2029.578125 L 1981.921875 2029.660156 L 1982.03125 2029.589844 C 2029.289062 1929.410156 2075.300781 1829.191406 2094.109375 1726 C 2095.820312 1716.660156 2097.300781 1707.28125 2098.578125 1697.890625 C 2112.019531 1599.101562 2102.929688 1497.808594 2093.75 1396.410156 L 2093.628906 1396.289062 L 2093.550781 1396.289062 C 2081.910156 1400.648438 2070.109375 1404.980469 2060.769531 1404.910156 C 2059.46875 1404.910156 2058.21875 1404.808594 2057.03125 1404.621094 C 2056.351562 1404.519531 2055.699219 1404.378906 2055.050781 1404.210938 C 2050.980469 1403.171875 2047.5 1401.058594 2043.808594 1398.808594 L 2043.761719 1398.78125 C 2039.25 1396.03125 2034.339844 1393.050781 2027.429688 1391.28125 C 2021.058594 1389.648438 2013 1389.039062 2004.019531 1388.980469 Z M 1981.820312 2029.546875 L 1981.910156 2029.671875 L 1981.921875 2029.660156 L 1981.910156 2029.667969 L 1981.828125 2029.550781 Z M 1981.910156 2029.671875 L 1981.910156 2029.675781 Z M 1334.890625 1777.011719 L 1319.269531 1781.730469 C 1289.890625 1792.78125 1271.621094 1813.46875 1264.460938 1843.800781 C 1260.460938 1867.980469 1259.871094 1888.519531 1262.671875 1905.429688 C 1264.25 1914.910156 1266.851562 1924.511719 1270.480469 1934.210938 L 1276.699219 1948.859375 C 1286.019531 1968.5 1299.441406 1988.589844 1316.980469 2009.148438 C 1330.011719 2022.46875 1343.511719 2035.535156 1357.488281 2048.351562 C 1385.441406 2073.984375 1415.308594 2098.605469 1447.078125 2122.222656 C 1451.578125 2126.035156 1462.691406 2133.960938 1480.398438 2145.996094 L 1480.398438 2146 C 1486.390625 2150.070312 1493.140625 2154.613281 1500.640625 2159.621094 C 1508.210938 2154.714844 1515.019531 2150.265625 1521.058594 2146.273438 L 1518.25 2035.300781 L 1521.070312 2146.265625 C 1538.941406 2134.472656 1550.148438 2126.695312 1554.710938 2122.941406 C 1586.789062 2099.753906 1616.980469 2075.53125 1645.28125 2050.277344 C 1659.429688 2037.648438 1673.109375 2024.765625 1686.308594 2011.621094 C 1704.121094 1991.308594 1717.808594 1971.390625 1727.390625 1951.871094 L 1733.808594 1937.320312 C 1737.570312 1927.660156 1740.300781 1918.101562 1742 1908.640625 C 1745.03125 1891.769531 1744.710938 1871.21875 1741.03125 1846.988281 C 1734.289062 1816.570312 1716.289062 1795.640625 1687.058594 1784.191406 L 1671.519531 1779.269531 L 1671.5 1779.269531 C 1670.558594 1779.53125 1670.628906 1781.019531 1671.699219 1783.738281 C 1681.710938 1803.648438 1687.148438 1815.25 1688.019531 1818.558594 C 1690.96875 1827.390625 1692.878906 1836.5 1693.75 1845.890625 C 1695.960938 1866.988281 1692.878906 1886.328125 1684.5 1903.910156 C 1675.089844 1924.46875 1661.621094 1934.679688 1644.078125 1934.570312 C 1628.820312 1934.460938 1610.5 1926.550781 1589.101562 1910.820312 L 1587.738281 1928.261719 L 1583.828125 1944.78125 C 1580.371094 1955.5 1575.191406 1965.609375 1568.320312 1975.121094 L 1556.71875 1988.921875 C 1542.808594 2003.347656 1524.410156 2016.183594 1501.519531 2027.433594 C 1478.800781 2015.878906 1460.578125 2002.796875 1446.859375 1988.191406 L 1435.449219 1974.230469 C 1428.699219 1964.628906 1423.660156 1954.449219 1420.339844 1943.691406 L 1416.648438 1927.109375 L 1415.539062 1909.660156 C 1393.921875 1925.101562 1375.488281 1932.769531 1360.238281 1932.671875 C 1342.691406 1932.550781 1329.359375 1922.148438 1320.230469 1901.46875 C 1312.089844 1883.78125 1309.269531 1864.398438 1311.761719 1843.328125 C 1312.761719 1833.949219 1314.789062 1824.871094 1317.859375 1816.078125 C 1318.769531 1812.78125 1324.371094 1801.261719 1334.640625 1781.488281 C 1335.75 1778.78125 1335.839844 1777.28125 1334.898438 1777.011719 Z M 1019.441406 1592.808594 L 1019.441406 1592.910156 L 1019.441406 1592.898438 L 1019.390625 1592.859375 L 1019.398438 1592.941406 C 1029.230469 1789.359375 1039.28125 1985.339844 1089.078125 2149.648438 C 1135.609375 2303.179688 1216.859375 2429.125 1300.691406 2553.28125 L 1300.78125 2553.253906 L 1300.769531 2553.230469 C 1244.519531 2451.210938 1190.128906 2351.671875 1157.160156 2280.703125 C 1120.941406 2202.722656 1110.558594 2159.1875 1100.191406 2115.703125 C 1100.058594 2115.125 1100.269531 2114.515625 1100.75 2114.15625 C 1101.019531 2113.949219 1101.339844 2113.84375 1101.671875 2113.847656 C 1101.921875 2113.847656 1102.160156 2113.910156 1102.390625 2114.035156 L 1119.070312 2123.207031 L 1119.140625 2123.164062 L 1119.140625 2123.152344 C 1099.769531 2032.652344 1080.480469 1942.230469 1070.03125 1865.351562 C 1059.441406 1787.5 1057.910156 1723.539062 1056.378906 1659.648438 L 1056.378906 1659.628906 C 1056.371094 1658.871094 1056.921875 1658.210938 1057.671875 1658.109375 C 1075 1655.519531 1091.988281 1652.96875 1105.539062 1645.769531 C 1117.648438 1639.339844 1127.078125 1629.140625 1136.390625 1618.339844 L 1136.371094 1618.269531 L 1136.339844 1618.269531 C 1121.179688 1620.410156 1105.980469 1622.421875 1091.769531 1622.320312 C 1089.691406 1622.308594 1087.628906 1622.25 1085.589844 1622.140625 C 1080.398438 1621.859375 1075.359375 1621.238281 1070.519531 1620.179688 C 1050.96875 1615.890625 1035 1604.441406 1019.480469 1592.820312 L 1019.449219 1592.808594 Z M 1695.289062 2555.910156 L 1695.390625 2555.972656 L 1695.339844 2556.03125 C 1695.328125 2556 1695.320312 2555.960938 1695.28125 2555.910156 Z M 1695.269531 2556.09375 L 1695.269531 2556.101562 L 1695.261719 2556.09375 Z M 1989.378906 1599.148438 C 1989.308594 1599.148438 1989.25 1599.179688 1989.210938 1599.230469 L 1989.191406 1599.230469 C 1973.53125 1610.628906 1957.449219 1621.820312 1937.929688 1625.820312 C 1933.078125 1626.820312 1928.039062 1627.371094 1922.851562 1627.578125 C 1920.808594 1627.671875 1918.769531 1627.699219 1916.679688 1627.679688 C 1902.488281 1627.589844 1887.328125 1625.371094 1872.199219 1623.03125 L 1872.160156 1623.03125 C 1872.070312 1623.03125 1872 1623.078125 1871.960938 1623.148438 C 1871.929688 1623.230469 1871.941406 1623.320312 1871.988281 1623.378906 C 1881.148438 1634.289062 1890.46875 1644.640625 1902.519531 1651.25 C 1916 1658.648438 1932.980469 1661.429688 1950.269531 1664.238281 C 1950.941406 1664.351562 1951.421875 1664.941406 1951.398438 1665.621094 L 1951.390625 1665.640625 L 1951.371094 1666.390625 C 1948.988281 1730.011719 1946.578125 1793.730469 1935 1871.121094 C 1923.519531 1947.851562 1903.019531 2037.992188 1882.441406 2128.226562 C 1882.421875 2128.308594 1882.449219 2128.390625 1882.519531 2128.441406 C 1882.550781 2128.472656 1882.601562 2128.484375 1882.640625 2128.488281 C 1882.679688 2128.488281 1882.710938 2128.476562 1882.738281 2128.460938 L 1899.558594 2119.515625 L 1899.570312 2119.503906 C 1899.769531 2119.40625 1899.980469 2119.355469 1900.191406 2119.359375 C 1900.480469 2119.359375 1900.769531 2119.457031 1901.011719 2119.644531 C 1901.429688 2119.972656 1901.609375 2120.515625 1901.480469 2121.027344 C 1890.539062 2164.359375 1879.570312 2207.75 1842.320312 2285.21875 C 1808.410156 2355.742188 1752.710938 2454.515625 1695.089844 2555.777344 C 1695.050781 2555.847656 1695.050781 2555.933594 1695.089844 2556 L 1695.078125 2556 C 1695.109375 2556.046875 1695.160156 2556.085938 1695.21875 2556.101562 C 1695.230469 2556.105469 1695.25 2556.105469 1695.261719 2556.105469 C 1695.28125 2556.105469 1695.300781 2556.101562 1695.308594 2556.09375 L 1695.300781 2556.09375 C 1695.359375 2556.085938 1695.410156 2556.054688 1695.441406 2556.003906 C 1780.929688 2432.988281 1863.878906 2308.128906 1912.46875 2155.210938 C 1964.46875 1991.53125 1977.140625 1795.660156 1989.609375 1599.371094 C 1989.609375 1599.320312 1989.589844 1599.261719 1989.550781 1599.210938 C 1989.511719 1599.179688 1989.46875 1599.160156 1989.410156 1599.148438 L 1989.398438 1599.148438 C 1989.390625 1599.148438 1989.378906 1599.148438 1989.378906 1599.148438 Z M 1989.378906 1599.148438 "/>
</svg>
